<svg data-v-fde0c5aa="" xmlns="http://www.w3.org/2000/svg" viewBox="0 0 300 300" class="iconLeftSlogan"><!----><defs data-v-fde0c5aa=""><!----></defs><rect data-v-fde0c5aa="" fill="transparent" x="0" y="0" width="300px" height="300px" class="logo-background-square"></rect><defs data-v-fde0c5aa=""><!----></defs><g data-v-fde0c5aa="" id="fd4bf967-ec63-4a9a-9afb-b68ff65e1aa1" fill="#000000" transform="matrix(1.6188925183818617,0,0,1.6188925183818617,90.37244737390216,124.36959316731406)"><path d="M7.57 10.36L7.57 8.58L5.36 8.57L5.36 8.57Q3.98 8.57 3.16 8.58L3.16 8.58L3.16 10.36L3.16 10.36Q3.16 10.88 3.23 11.87L3.23 11.87L3.23 11.87Q3.29 12.87 3.37 13.19L3.37 13.19L3.37 13.29L1.51 13.29L1.51 13.19L1.51 13.19Q1.72 12.38 1.72 10.35L1.72 10.35L1.72 6.43L1.72 6.43Q1.72 4.40 1.51 3.58L1.51 3.58L1.51 3.49L3.37 3.49L3.37 3.58L3.37 3.58Q3.29 3.91 3.23 4.91L3.23 4.91L3.23 4.91Q3.16 5.91 3.16 6.43L3.16 6.43L3.16 7.70L7.57 7.70L7.57 6.43L7.57 6.43Q7.57 5.91 7.51 4.91L7.51 4.91L7.51 4.91Q7.45 3.91 7.36 3.58L7.36 3.58L7.36 3.49L9.23 3.49L9.23 3.58L9.23 3.58Q9.02 4.40 9.02 6.43L9.02 6.43L9.02 10.35L9.02 10.35Q9.02 12.38 9.23 13.19L9.23 13.19L9.23 13.29L7.36 13.29L7.36 13.19L7.36 13.19Q7.45 12.87 7.51 11.87L7.51 11.87L7.51 11.87Q7.57 10.88 7.57 10.36L7.57 10.36ZM12.10 11.34L12.10 11.34L12.10 8.62L12.10 8.62Q12.10 7.38 11.40 6.89L11.40 6.89L11.40 6.72L13.37 6.38L13.45 6.52L13.45 6.52Q13.41 6.93 13.41 7.69L13.41 7.69L13.41 10.99L13.41 10.99Q13.41 12.39 13.76 13.19L13.76 13.19L13.76 13.29L11.87 13.29L11.87 13.19L11.87 13.19Q12.10 12.53 12.10 11.34ZM13.27 3.37L13.27 3.37L13.27 3.37Q13.47 3.54 13.47 4.19L13.47 4.19L13.47 4.19Q13.47 4.34 13.45 4.47L13.45 4.47L13.34 4.56L13.34 4.56Q12.78 4.72 12.01 4.79L12.01 4.79L11.89 4.73L11.89 4.73Q11.68 4.37 11.68 3.77L11.68 3.77L11.68 3.77Q11.68 3.70 11.68 3.63L11.68 3.63L11.79 3.53L11.79 3.53Q12.46 3.30 13.08 3.30L13.08 3.30L13.08 3.30Q13.15 3.30 13.27 3.37ZM15.81 11.34L15.81 11.34L15.81 8.62L15.81 8.62Q15.81 7.38 15.11 6.89L15.11 6.89L15.11 6.72L17.08 6.38L17.16 6.52L17.16 6.52Q17.12 6.93 17.12 7.69L17.12 7.69L17.12 10.99L17.12 10.99Q17.12 12.39 17.47 13.19L17.47 13.19L17.47 13.29L15.58 13.29L15.58 13.19L15.58 13.19Q15.81 12.53 15.81 11.34ZM16.98 3.37L16.98 3.37L16.98 3.37Q17.18 3.54 17.18 4.19L17.18 4.19L17.18 4.19Q17.18 4.34 17.16 4.47L17.16 4.47L17.05 4.56L17.05 4.56Q16.49 4.72 15.72 4.79L15.72 4.79L15.60 4.73L15.60 4.73Q15.39 4.37 15.39 3.77L15.39 3.77L15.39 3.77Q15.39 3.70 15.39 3.63L15.39 3.63L15.50 3.53L15.50 3.53Q16.17 3.30 16.79 3.30L16.79 3.30L16.79 3.30Q16.86 3.30 16.98 3.37ZM21.07 13.12L21.07 13.29L19.26 13.29L19.26 13.12L19.26 13.12Q19.50 12.42 19.50 10.91L19.50 10.91L19.50 5.07L19.50 5.07Q19.50 3.95 18.86 3.33L18.86 3.33L18.86 3.16L20.78 2.83L20.86 2.97L20.86 2.97Q20.82 3.37 20.82 5.66L20.82 5.66L20.83 10.91L20.83 10.91Q20.83 12.42 21.07 13.12L21.07 13.12ZM30.11 13.45L30.11 13.45L30.11 13.45Q28.08 13.45 26.89 12.04L26.89 12.04L26.89 12.04Q25.69 10.63 25.69 8.46L25.69 8.46L25.69 8.46Q25.69 6.30 27.05 4.79L27.05 4.79L27.05 4.79Q28.41 3.29 30.55 3.29L30.55 3.29L30.55 3.29Q31.93 3.29 32.93 3.98L32.93 3.98L32.93 3.98Q34.86 5.31 34.86 8.13L34.86 8.13L34.86 8.13Q34.86 10.44 33.50 11.95L33.50 11.95L33.50 11.95Q32.13 13.45 30.11 13.45ZM33.28 8.51L33.28 8.51L33.28 8.51Q33.28 6.72 32.61 5.59L32.61 5.59L32.61 5.59Q31.86 4.31 30.11 4.31L30.11 4.31L30.11 4.31Q28.88 4.31 28.18 4.75L28.18 4.75L28.18 4.75Q27.78 5.25 27.52 6.17L27.52 6.17L27.52 6.17Q27.27 7.08 27.27 8.22L27.27 8.22L27.27 8.22Q27.27 9.37 27.57 10.28L27.57 10.28L27.57 10.28Q27.86 11.20 28.62 11.83L28.62 11.83L28.62 11.83Q29.39 12.46 30.50 12.46L30.50 12.46L30.50 12.46Q31.61 12.46 32.34 12.00L32.34 12.00L32.34 12.00Q33.28 10.95 33.28 8.51ZM40.28 6.40L40.28 6.40L40.28 6.40Q40.71 6.40 40.92 6.50L40.92 6.50L40.92 6.50Q40.92 6.58 40.92 6.66L40.92 6.66L40.92 6.66Q40.92 7.49 40.67 8.16L40.67 8.16L40.67 8.16Q40.04 7.76 39.24 7.76L39.24 7.76L39.24 7.76Q38.81 7.76 38.37 7.91L38.37 7.91L38.37 10.91L38.37 10.91Q38.37 12.26 38.78 13.19L38.78 13.19L38.78 13.29L36.82 13.29L36.82 13.19L36.82 13.19Q37.06 12.49 37.06 11.33L37.06 11.33L37.06 8.95L37.06 8.95Q37.06 8.34 36.81 7.76L36.81 7.76L36.81 7.76Q36.57 7.18 36.25 6.99L36.25 6.99L36.23 6.82L37.88 6.38L37.88 6.38Q38.11 6.76 38.25 7.27L38.25 7.27L38.25 7.27Q39.09 6.40 40.28 6.40ZM43.71 11.09L43.71 11.09Q43.41 11.24 43.22 11.44L43.22 11.44L43.22 11.44Q43.02 11.63 43.02 11.75L43.02 11.75L43.02 11.75Q43.02 11.87 43.08 11.94L43.08 11.94L43.08 11.94Q43.13 12.01 43.27 12.07L43.27 12.07L43.27 12.07Q43.41 12.12 43.55 12.16L43.55 12.16L43.55 12.16Q43.69 12.19 43.94 12.24L43.94 12.24L43.94 12.24Q44.18 12.28 44.37 12.31L44.37 12.31L44.37 12.31Q44.56 12.33 44.88 12.38L44.88 12.38L44.88 12.38Q45.21 12.43 45.42 12.46L45.42 12.46L45.42 12.46Q46.66 12.64 47.22 12.98L47.22 12.98L47.22 12.98Q47.78 13.31 47.78 14.11L47.78 14.11L47.78 14.11Q47.78 15.25 46.73 15.86L46.73 15.86L46.73 15.86Q45.68 16.48 44.23 16.48L44.23 16.48L44.23 16.48Q43.18 16.48 42.31 16.14L42.31 16.14L42.31 16.14Q41.82 15.95 41.52 15.57L41.52 15.57L41.52 15.57Q41.23 15.20 41.23 14.67L41.23 14.67L41.23 14.67Q41.23 13.57 42.53 13.02L42.53 13.02L42.53 13.02Q41.83 12.73 41.83 12.12L41.83 12.12L41.83 12.12Q41.83 11.51 43.02 10.86L43.02 10.86L43.02 10.86Q41.79 10.23 41.79 8.81L41.79 8.81L41.79 8.81Q41.79 7.69 42.53 7.06L42.53 7.06L42.53 7.06Q43.27 6.44 44.34 6.44L44.34 6.44L44.34 6.44Q45.40 6.44 46.05 6.80L46.05 6.80L46.05 6.80Q46.55 6.80 47.70 6.69L47.70 6.69L48.08 7.49L46.80 7.46L46.80 7.46Q47.17 8.01 47.17 8.75L47.17 8.75L47.17 8.75Q47.17 9.88 46.42 10.53L46.42 10.53L46.42 10.53Q45.68 11.17 44.51 11.17L44.51 11.17L44.51 11.17Q44.09 11.17 43.71 11.09L43.71 11.09ZM43.09 13.27L43.09 13.27L43.09 13.27Q42.13 13.62 42.13 14.38L42.13 14.38L42.13 14.38Q42.13 15.13 42.90 15.50L42.90 15.50L42.90 15.50Q43.67 15.88 44.56 15.88L44.56 15.88L44.56 15.88Q45.65 15.88 46.24 15.39L46.24 15.39L46.24 15.39Q46.59 15.11 46.59 14.67L46.59 14.67L46.59 14.67Q46.59 14.31 46.27 14.06L46.27 14.06L46.27 14.06Q45.99 13.83 44.66 13.59L44.66 13.59L44.66 13.59Q44.38 13.54 43.81 13.42L43.81 13.42L43.81 13.42Q43.25 13.30 43.09 13.27ZM43.37 9.69L43.37 9.69L43.37 9.69Q43.74 10.47 44.59 10.47L44.59 10.47L44.59 10.47Q45.18 10.47 45.40 10.28L45.40 10.28L45.40 10.28Q45.79 9.83 45.79 8.90L45.79 8.90L45.79 8.90Q45.79 7.97 45.50 7.55L45.50 7.55L45.50 7.55Q45.21 7.14 44.53 7.14L44.53 7.14L44.53 7.14Q43.86 7.14 43.54 7.32L43.54 7.32L43.54 7.32Q43.16 7.84 43.16 8.55L43.16 8.55L43.16 8.55Q43.16 9.25 43.37 9.69ZM52.70 11.80L52.70 10.49L52.70 10.49Q52.12 10.28 51.37 10.28L51.37 10.28L51.37 10.28Q50.62 10.28 50.29 10.51L50.29 10.51L50.29 10.51Q50.08 10.84 50.08 11.38L50.08 11.38L50.08 11.38Q50.08 11.91 50.37 12.22L50.37 12.22L50.37 12.22Q50.67 12.53 51.11 12.53L51.11 12.53L51.11 12.53Q51.55 12.53 52.01 12.30L52.01 12.30L52.01 12.30Q52.47 12.07 52.70 11.80L52.70 11.80ZM52.92 12.50L52.92 12.50L52.92 12.50Q52.07 13.44 50.99 13.44L50.99 13.44L50.99 13.44Q49.92 13.44 49.31 12.98L49.31 12.98L49.31 12.98Q48.71 12.52 48.71 11.49L48.71 11.49L48.71 11.49Q48.71 10.46 49.43 10.01L49.43 10.01L49.43 10.01Q50.15 9.56 51.46 9.56L51.46 9.56L52.70 9.60L52.70 8.81L52.70 8.81Q52.70 8.06 52.33 7.60L52.33 7.60L52.33 7.60Q51.97 7.14 51.23 7.14L51.23 7.14L51.23 7.14Q50.68 7.15 49.48 8.19L49.48 8.19L49.48 8.19Q49.07 7.67 48.90 6.85L48.90 6.85L48.90 6.85Q50.29 6.40 51.45 6.40L51.45 6.40L51.45 6.40Q52.61 6.40 53.31 7.00L53.31 7.00L53.31 7.00Q54.01 7.60 54.01 8.71L54.01 8.71L54.01 11.06L54.01 11.06Q54.03 11.69 54.22 12.23L54.22 12.23L54.22 12.23Q54.40 12.77 54.71 12.98L54.71 12.98L54.74 13.12L53.24 13.48L53.24 13.48Q53.06 13.03 52.92 12.50ZM60.30 6.40L60.30 6.40L60.30 6.40Q61.31 6.40 61.86 7.04L61.86 7.04L61.86 7.04Q62.41 7.69 62.41 8.89L62.41 8.89L62.41 10.91L62.41 10.91Q62.41 12.24 62.83 13.19L62.83 13.19L62.83 13.29L60.86 13.29L60.86 13.19L60.86 13.19Q61.10 12.49 61.10 11.33L61.10 11.33L61.10 9.18L61.10 9.18Q61.10 8.37 60.85 7.96L60.85 7.96L60.85 7.96Q60.61 7.55 59.86 7.55L59.86 7.55L59.86 7.55Q59.12 7.55 57.96 8.26L57.96 8.26L57.96 10.91L57.96 10.91Q57.96 12.26 58.37 13.19L58.37 13.19L58.37 13.29L56.41 13.29L56.41 13.19L56.41 13.19Q56.64 12.49 56.64 11.33L56.64 11.33L56.64 8.95L56.64 8.95Q56.64 8.34 56.40 7.76L56.40 7.76L56.40 7.76Q56.15 7.18 55.83 6.99L55.83 6.99L55.82 6.82L57.65 6.38L57.74 6.52L57.74 6.52Q57.85 7.04 57.90 7.57L57.90 7.57L57.90 7.57Q58.42 7.17 58.71 6.97L58.71 6.97L58.71 6.97Q59.00 6.78 59.44 6.59L59.44 6.59L59.44 6.59Q59.89 6.40 60.30 6.40ZM64.96 11.34L64.96 11.34L64.96 8.62L64.96 8.62Q64.96 7.38 64.26 6.89L64.26 6.89L64.26 6.72L66.23 6.38L66.32 6.52L66.32 6.52Q66.28 6.93 66.28 7.69L66.28 7.69L66.28 10.99L66.28 10.99Q66.28 12.39 66.63 13.19L66.63 13.19L66.63 13.29L64.74 13.29L64.74 13.19L64.74 13.19Q64.96 12.53 64.96 11.34ZM66.14 3.37L66.14 3.37L66.14 3.37Q66.33 3.54 66.33 4.19L66.33 4.19L66.33 4.19Q66.33 4.34 66.32 4.47L66.32 4.47L66.21 4.56L66.21 4.56Q65.65 4.72 64.88 4.79L64.88 4.79L64.75 4.73L64.75 4.73Q64.54 4.37 64.54 3.77L64.54 3.77L64.54 3.77Q64.54 3.70 64.54 3.63L64.54 3.63L64.65 3.53L64.65 3.53Q65.32 3.30 65.94 3.30L65.94 3.30L65.94 3.30Q66.01 3.30 66.14 3.37ZM72.59 6.57L72.94 7.25L69.22 12.46L69.22 12.46Q71.51 12.46 72.79 12.05L72.79 12.05L72.94 12.12L72.55 13.29L67.86 13.29L67.52 12.61L71.26 7.41L71.26 7.41Q69.79 7.41 69.19 7.48L69.19 7.48L69.19 7.48Q68.59 7.56 68.10 7.80L68.10 7.80L67.94 7.70L68.22 6.52L72.59 6.57ZM77.90 11.80L77.90 10.49L77.90 10.49Q77.32 10.28 76.57 10.28L76.57 10.28L76.57 10.28Q75.82 10.28 75.49 10.51L75.49 10.51L75.49 10.51Q75.28 10.84 75.28 11.38L75.28 11.38L75.28 11.38Q75.28 11.91 75.57 12.22L75.57 12.22L75.57 12.22Q75.87 12.53 76.31 12.53L76.31 12.53L76.31 12.53Q76.75 12.53 77.21 12.30L77.21 12.30L77.21 12.30Q77.67 12.07 77.90 11.80L77.90 11.80ZM78.12 12.50L78.12 12.50L78.12 12.50Q77.27 13.44 76.19 13.44L76.19 13.44L76.19 13.44Q75.12 13.44 74.52 12.98L74.52 12.98L74.52 12.98Q73.91 12.52 73.91 11.49L73.91 11.49L73.91 11.49Q73.91 10.46 74.63 10.01L74.63 10.01L74.63 10.01Q75.35 9.56 76.66 9.56L76.66 9.56L77.90 9.60L77.90 8.81L77.90 8.81Q77.90 8.06 77.53 7.60L77.53 7.60L77.53 7.60Q77.17 7.14 76.43 7.14L76.43 7.14L76.43 7.14Q75.88 7.15 74.68 8.19L74.68 8.19L74.68 8.19Q74.27 7.67 74.10 6.85L74.10 6.85L74.10 6.85Q75.49 6.40 76.65 6.40L76.65 6.40L76.65 6.40Q77.81 6.40 78.51 7.00L78.51 7.00L78.51 7.00Q79.21 7.60 79.21 8.71L79.21 8.71L79.21 11.06L79.21 11.06Q79.23 11.69 79.41 12.23L79.41 12.23L79.41 12.23Q79.60 12.77 79.91 12.98L79.91 12.98L79.94 13.12L78.44 13.48L78.44 13.48Q78.26 13.03 78.12 12.50ZM83.16 7.35L83.16 11.72L83.16 11.72Q83.16 12.46 83.61 12.46L83.61 12.46L83.61 12.46Q83.99 12.46 84.88 12.01L84.88 12.01L85.18 12.50L85.18 12.50Q84.73 12.81 84.06 13.13L84.06 13.13L84.06 13.13Q83.38 13.44 82.82 13.44L82.82 13.44L82.82 13.44Q82.26 13.44 82.05 13.09L82.05 13.09L82.05 13.09Q81.84 12.74 81.84 12.08L81.84 12.08L81.84 7.36L80.58 7.43L80.92 6.52L80.92 6.52Q81.17 6.55 81.82 6.58L81.82 6.58L81.82 6.58Q81.79 5.88 81.73 5.32L81.73 5.32L83.16 4.96L83.16 6.57L83.16 6.57Q83.92 6.54 85.22 6.40L85.22 6.40L84.83 7.49L84.83 7.49Q84.07 7.38 83.16 7.35L83.16 7.35ZM86.86 11.34L86.86 11.34L86.86 8.62L86.86 8.62Q86.86 7.38 86.16 6.89L86.16 6.89L86.16 6.72L88.13 6.38L88.21 6.52L88.21 6.52Q88.17 6.93 88.17 7.69L88.17 7.69L88.17 10.99L88.17 10.99Q88.17 12.39 88.52 13.19L88.52 13.19L88.52 13.29L86.63 13.29L86.63 13.19L86.63 13.19Q86.86 12.53 86.86 11.34ZM88.03 3.37L88.03 3.37L88.03 3.37Q88.23 3.54 88.23 4.19L88.23 4.19L88.23 4.19Q88.23 4.34 88.21 4.47L88.21 4.47L88.10 4.56L88.10 4.56Q87.54 4.72 86.77 4.79L86.77 4.79L86.65 4.73L86.65 4.73Q86.44 4.37 86.44 3.77L86.44 3.77L86.44 3.77Q86.44 3.70 86.44 3.63L86.44 3.63L86.55 3.53L86.55 3.53Q87.22 3.30 87.84 3.30L87.84 3.30L87.84 3.30Q87.91 3.30 88.03 3.37ZM93.00 13.45L93.00 13.45L93.00 13.45Q91.53 13.45 90.68 12.52L90.68 12.52L90.68 12.52Q89.82 11.59 89.82 10.09L89.82 10.09L89.82 10.09Q89.82 8.58 90.82 7.49L90.82 7.49L90.82 7.49Q91.81 6.40 93.32 6.40L93.32 6.40L93.32 6.40Q94.82 6.40 95.64 7.31L95.64 7.31L95.64 7.31Q96.46 8.22 96.46 9.74L96.46 9.74L96.46 9.74Q96.46 11.27 95.47 12.36L95.47 12.36L95.47 12.36Q94.47 13.45 93.00 13.45ZM94.98 10.09L94.98 10.09L94.98 10.09Q94.98 8.71 94.54 7.95L94.54 7.95L94.54 7.95Q94.11 7.20 93.00 7.20L93.00 7.20L93.00 7.20Q92.29 7.20 91.88 7.50L91.88 7.50L91.88 7.50Q91.63 7.83 91.47 8.48L91.47 8.48L91.47 8.48Q91.31 9.14 91.31 9.74L91.31 9.74L91.31 9.74Q91.31 12.67 93.38 12.67L93.38 12.67L93.38 12.67Q94.02 12.67 94.43 12.38L94.43 12.38L94.43 12.38Q94.70 12.05 94.84 11.38L94.84 11.38L94.84 11.38Q94.98 10.71 94.98 10.09ZM102.24 6.40L102.24 6.40L102.24 6.40Q103.25 6.40 103.80 7.04L103.80 7.04L103.80 7.04Q104.36 7.69 104.36 8.89L104.36 8.89L104.36 10.91L104.36 10.91Q104.36 12.24 104.78 13.19L104.78 13.19L104.78 13.29L102.80 13.29L102.80 13.19L102.80 13.19Q103.04 12.49 103.04 11.33L103.04 11.33L103.04 9.18L103.04 9.18Q103.04 8.37 102.79 7.96L102.79 7.96L102.79 7.96Q102.55 7.55 101.81 7.55L101.81 7.55L101.81 7.55Q101.07 7.55 99.90 8.26L99.90 8.26L99.90 10.91L99.90 10.91Q99.90 12.26 100.31 13.19L100.31 13.19L100.31 13.29L98.35 13.29L98.35 13.19L98.35 13.19Q98.59 12.49 98.59 11.33L98.59 11.33L98.59 8.95L98.59 8.95Q98.59 8.34 98.34 7.76L98.34 7.76L98.34 7.76Q98.10 7.18 97.78 6.99L97.78 6.99L97.76 6.82L99.60 6.38L99.68 6.52L99.68 6.52Q99.79 7.04 99.85 7.57L99.85 7.57L99.85 7.57Q100.37 7.17 100.65 6.97L100.65 6.97L100.65 6.97Q100.94 6.78 101.39 6.59L101.39 6.59L101.39 6.59Q101.84 6.40 102.24 6.40Z"></path></g><defs data-v-fde0c5aa=""><linearGradient data-v-fde0c5aa="" gradientTransform="rotate(25)" id="2c90d05b-4961-45eb-92bb-4c784a1bee15" x1="0%" y1="0%" x2="100%" y2="0%"><stop data-v-fde0c5aa="" offset="0%" stop-color="#177775" stop-opacity="1"></stop><stop data-v-fde0c5aa="" offset="100%" stop-color="#28D2BF" stop-opacity="1"></stop></linearGradient></defs><g data-v-fde0c5aa="" id="11aaa9d3-b589-47ea-be0b-73b99b1bdfc3" stroke="none" fill="url(#2c90d05b-4961-45eb-92bb-4c784a1bee15)" transform="matrix(0.4639375079538819,0,0,0.4639375079538819,36.803006728257984,126.99009313115947)"><path d="M64.008 72.381c4.002-3.149 12.23-11.582 15.089-21.179-6.511-8.01-33.912-42.187-40.238-50.08-.647 7.491-7.229 23.255-18.649 28.524-5.247 2.56-10.477 4.156-12.467 4.721l39.077 47.32c4.415-1.424 13.138-6.127 17.188-9.306zM90.405 75.352c-6.5 3.781-13.381 7.281-20.674 9.929-8.632 3.134-19.05 6.681-22.386 7.664v5.127l43.046-15.479.014-7.241zM6.891 35.865v14.223l38.812 47.857.033-15.043z"></path><path d="M88.717 70.42c-5.018 3.936-11.386 7.921-18.278 11.363-6.521 3.266-20.879 7.668-23.093 8.339v1.144c3.686-1.09 13.036-3.898 21.237-7.013 9.104-3.457 22.12-11.628 22.12-11.628l-1.986-2.205zM80.877 50.835l-.114.403c-2.851 10.142-11.25 18.858-15.762 22.409-4.225 3.319-13.009 8.054-17.655 9.561v2.168c6.53-2.034 15.656-6.36 20.721-9.922 8.699-6.128 17.195-14.63 22.419-22.404l.047.036C84.648 46.442 51.938 9.001 49.818 6.309c-.719 1.357-1.368 2.265-2.422 2.887C58.228 22.704 75.994 44.843 80.613 50.51l.264.325z"></path><path d="M87.321 59.925s-11.588 12.1-18.328 16.846c-5.696 4.008-14.5 7.942-21.647 10.168v1.498c.692-.212 1.838-.566 3.268-1.021 5.266-1.677 14.41-4.722 19.106-7.072 9.305-4.648 17.623-10.274 22.834-15.386l.161-.16-5.394-4.873z"></path></g><defs data-v-fde0c5aa=""><!----></defs><g data-v-fde0c5aa="" id="417fad3c-7918-43c9-9713-4d90fbdcd392" fill="#000000" transform="matrix(0.5768910696373619,0,0,0.5768910696373619,92.32661763827389,158.28563292762064)"><path d="M2.04 16.24L2.04 16.24L2.04 16.24Q1.37 16.04 1.11 15.85L1.11 15.85L1.11 15.85Q0.85 15.65 0.85 15.36L0.85 15.36L0.85 15.36Q0.85 15.13 0.98 14.73L0.98 14.73L0.98 14.73Q1.11 14.32 1.35 13.77L1.35 13.77L1.35 13.77Q1.60 13.22 1.94 12.54L1.94 12.54L1.94 12.54Q2.28 11.87 2.72 11.10L2.72 11.10L2.72 11.10Q2.35 11.09 2.06 11.08L2.06 11.08L2.06 11.08Q1.78 11.07 1.60 11.07L1.60 11.07L1.60 11.07Q1.68 10.86 2.07 10.71L2.07 10.71L2.07 10.71Q2.46 10.56 3.11 10.44L3.11 10.44L3.11 10.44Q3.65 9.53 4.28 8.71L4.28 8.71L4.28 8.71Q4.90 7.88 5.53 7.19L5.53 7.19L5.53 7.19Q6.16 6.50 6.79 5.97L6.79 5.97L6.79 5.97Q7.42 5.45 7.99 5.14L7.99 5.14L7.99 5.14Q8.01 5.04 8.02 4.97L8.02 4.97L8.02 4.97Q8.02 4.90 8.02 4.87L8.02 4.87L8.02 4.87Q8.22 4.87 8.55 4.97L8.55 4.97L8.55 4.97Q8.88 5.07 9.19 5.21L9.19 5.21L9.19 5.21Q9.51 5.35 9.75 5.49L9.75 5.49L9.75 5.49Q10.00 5.64 10.02 5.74L10.02 5.74L10.02 5.74Q9.56 6.55 9.11 8.17L9.11 8.17L9.11 8.17Q8.67 9.79 8.37 12.04L8.37 12.04L8.37 12.04Q8.30 12.60 8.25 13.31L8.25 13.31L8.25 13.31Q8.20 14.03 8.20 14.91L8.20 14.91L8.20 14.91Q8.20 15.22 8.20 15.54L8.20 15.54L8.20 15.54Q8.20 15.86 8.23 16.21L8.23 16.21L8.23 16.21Q8.20 16.23 8.18 16.23L8.18 16.23L8.18 16.23Q8.15 16.23 8.06 16.23L8.06 16.23L8.06 16.23Q7.87 16.23 7.61 16.16L7.61 16.16L7.61 16.16Q7.35 16.10 7.11 16.01L7.11 16.01L7.11 16.01Q6.86 15.92 6.69 15.81L6.69 15.81L6.69 15.81Q6.51 15.69 6.47 15.61L6.47 15.61L6.47 15.61Q6.45 15.43 6.45 15.25L6.45 15.25L6.45 15.25Q6.45 15.08 6.45 14.88L6.45 14.88L6.45 14.88Q6.45 14.01 6.52 13.12L6.52 13.12L6.52 13.12Q6.58 12.22 6.73 11.27L6.73 11.27L6.73 11.27Q6.54 11.26 6.22 11.23L6.22 11.23L6.22 11.23Q5.89 11.21 5.50 11.20L5.50 11.20L5.50 11.20Q5.10 11.19 4.64 11.16L4.64 11.16L4.64 11.16Q4.19 11.14 3.75 11.13L3.75 11.13L3.75 11.13Q3.42 11.76 3.12 12.38L3.12 12.38L3.12 12.38Q2.83 13.01 2.62 13.64L2.62 13.64L2.62 13.64Q2.38 14.31 2.23 14.98L2.23 14.98L2.23 14.98Q2.09 15.65 2.04 16.24ZM7.45 7.83L7.45 7.83L7.45 7.83Q7.50 7.63 7.58 7.29L7.58 7.29L7.58 7.29Q7.66 6.94 7.73 6.57L7.73 6.57L7.73 6.57Q7.38 6.69 6.95 7.03L6.95 7.03L6.95 7.03Q6.52 7.36 6.07 7.86L6.07 7.86L6.07 7.86Q5.61 8.36 5.15 8.98L5.15 8.98L5.15 8.98Q4.68 9.60 4.24 10.30L4.24 10.30L4.24 10.30Q5.42 10.21 6.92 10.18L6.92 10.18L6.92 10.18Q7.03 9.59 7.16 9.01L7.16 9.01L7.16 9.01Q7.29 8.43 7.45 7.83ZM37.38 7.46L37.38 7.46L37.38 7.46Q37.38 8.33 36.90 9.01L36.90 9.01L36.90 9.01Q36.43 9.69 35.60 10.14L35.60 10.14L35.60 10.14Q36.13 10.50 36.45 11.03L36.45 11.03L36.45 11.03Q36.76 11.55 36.76 12.18L36.76 12.18L36.76 12.18Q36.76 12.94 36.31 13.67L36.31 13.67L36.31 13.67Q35.85 14.41 35.10 14.97L35.10 14.97L35.10 14.97Q34.34 15.54 33.38 15.89L33.38 15.89L33.38 15.89Q32.41 16.24 31.40 16.24L31.40 16.24L31.40 16.24Q30.31 16.24 29.49 15.83L29.49 15.83L29.49 15.83Q28.67 15.41 28.21 14.66L28.21 14.66L28.21 14.66Q28.35 14.24 28.58 13.62L28.58 13.62L28.58 13.62Q28.81 12.99 29.09 12.30L29.09 12.30L29.09 12.30Q29.37 11.61 29.66 10.92L29.66 10.92L29.66 10.92Q29.95 10.23 30.20 9.69L30.20 9.69L30.20 9.69Q30.73 8.50 31.15 7.71L31.15 7.71L31.15 7.71Q31.57 6.93 31.92 6.47L31.92 6.47L31.92 6.47Q31.15 6.71 30.52 7.01L30.52 7.01L30.52 7.01Q29.89 7.31 29.60 7.59L29.60 7.59L29.60 7.59Q29.47 7.50 29.34 7.34L29.34 7.34L29.34 7.34Q29.20 7.17 29.09 6.96L29.09 6.96L29.09 6.96Q28.97 6.76 28.89 6.55L28.89 6.55L28.89 6.55Q28.81 6.34 28.80 6.17L28.80 6.17L28.80 6.17Q29.16 5.92 29.74 5.69L29.74 5.69L29.74 5.69Q30.32 5.46 31.01 5.29L31.01 5.29L31.01 5.29Q31.70 5.12 32.42 5.03L32.42 5.03L32.42 5.03Q33.14 4.93 33.80 4.93L33.80 4.93L33.80 4.93Q35.48 4.93 36.43 5.60L36.43 5.60L36.43 5.60Q37.38 6.27 37.38 7.46ZM32.05 10.81L32.05 10.81L32.05 10.81Q31.78 10.68 31.56 10.43L31.56 10.43L31.56 10.43Q31.23 11.14 30.95 11.83L30.95 11.83L30.95 11.83Q30.66 12.52 30.44 13.10L30.44 13.10L30.44 13.10Q30.21 13.69 30.07 14.13L30.07 14.13L30.07 14.13Q29.93 14.56 29.92 14.76L29.92 14.76L29.92 14.76Q30.11 14.87 30.39 14.92L30.39 14.92L30.39 14.92Q30.66 14.98 31.07 14.98L31.07 14.98L31.07 14.98Q32.02 14.98 32.89 14.71L32.89 14.71L32.89 14.71Q33.75 14.45 34.41 13.99L34.41 13.99L34.41 13.99Q35.07 13.54 35.46 12.95L35.46 12.95L35.46 12.95Q35.85 12.36 35.85 11.72L35.85 11.72L35.85 11.72Q35.85 10.79 35.06 10.39L35.06 10.39L35.06 10.39Q33.96 10.84 32.59 10.84L32.59 10.84L32.59 10.84Q32.40 10.84 32.29 10.84L32.29 10.84L32.29 10.84Q32.19 10.84 32.05 10.81ZM34.76 5.95L34.76 5.95L34.76 5.95Q34.47 5.95 34.14 5.98L34.14 5.98L34.14 5.98Q33.81 6.02 33.45 6.09L33.45 6.09L33.45 6.09Q33.50 6.15 33.54 6.21L33.54 6.21L33.54 6.21Q33.57 6.27 33.60 6.34L33.60 6.34L33.60 6.34Q33.47 6.51 33.29 6.83L33.29 6.83L33.29 6.83Q33.11 7.15 32.89 7.58L32.89 7.58L32.89 7.58Q32.66 8.01 32.42 8.53L32.42 8.53L32.42 8.53Q32.17 9.04 31.92 9.59L31.92 9.59L31.92 9.59Q32.16 9.53 32.50 9.50L32.50 9.50L32.50 9.50Q32.84 9.46 33.18 9.46L33.18 9.46L33.18 9.46Q33.36 9.46 33.54 9.48L33.54 9.48L33.54 9.48Q33.71 9.49 33.88 9.52L33.88 9.52L33.88 9.52Q34.55 9.41 35.09 9.19L35.09 9.19L35.09 9.19Q35.63 8.97 36.02 8.69L36.02 8.69L36.02 8.69Q36.41 8.40 36.62 8.05L36.62 8.05L36.62 8.05Q36.83 7.70 36.83 7.31L36.83 7.31L36.83 7.31Q36.83 6.64 36.30 6.29L36.30 6.29L36.30 6.29Q35.77 5.95 34.76 5.95ZM51.25 4.98L51.25 4.98L51.25 4.98Q51.52 5.10 51.80 5.27L51.80 5.27L51.80 5.27Q52.08 5.45 52.32 5.63L52.32 5.63L52.32 5.63Q52.56 5.81 52.72 5.98L52.72 5.98L52.72 5.98Q52.88 6.16 52.89 6.27L52.89 6.27L52.89 6.27Q52.65 6.22 52.42 6.20L52.42 6.20L52.42 6.20Q52.18 6.17 51.98 6.17L51.98 6.17L51.98 6.17Q51.35 6.17 50.73 6.48L50.73 6.48L50.73 6.48Q50.11 6.79 49.55 7.32L49.55 7.32L49.55 7.32Q48.99 7.85 48.51 8.57L48.51 8.57L48.51 8.57Q48.03 9.28 47.69 10.09L47.69 10.09L47.69 10.09Q47.35 10.91 47.15 11.77L47.15 11.77L47.15 11.77Q46.96 12.64 46.96 13.48L46.96 13.48L46.96 13.48Q46.96 14.57 47.32 15.11L47.32 15.11L47.32 15.11Q47.68 15.64 48.38 15.64L48.38 15.64L48.38 15.64Q48.72 15.64 49.11 15.51L49.11 15.51L49.11 15.51Q49.50 15.37 49.91 15.13L49.91 15.13L49.91 15.13Q50.32 14.90 50.71 14.56L50.71 14.56L50.71 14.56Q51.10 14.22 51.44 13.82L51.44 13.82L51.44 13.82Q51.93 13.23 52.32 12.48L52.32 12.48L52.32 12.48Q52.71 11.73 52.98 10.89L52.98 10.89L52.98 10.89Q53.26 10.05 53.40 9.16L53.40 9.16L53.40 9.16Q53.55 8.27 53.55 7.42L53.55 7.42L53.55 7.42Q53.55 7.08 53.54 6.85L53.54 6.85L53.54 6.85Q53.52 6.62 53.50 6.46L53.50 6.46L53.50 6.46Q53.48 6.30 53.47 6.20L53.47 6.20L53.47 6.20Q53.45 6.10 53.44 6.03L53.44 6.03L53.44 6.03Q53.61 6.12 53.81 6.24L53.81 6.24L53.81 6.24Q54.01 6.36 54.19 6.59L54.19 6.59L54.19 6.59Q54.36 6.82 54.48 7.20L54.48 7.20L54.48 7.20Q54.60 7.57 54.60 8.18L54.60 8.18L54.60 8.18Q54.60 9.16 54.37 10.10L54.37 10.10L54.37 10.10Q54.14 11.05 53.73 11.90L53.73 11.90L53.73 11.90Q53.31 12.75 52.75 13.50L52.75 13.50L52.75 13.50Q52.19 14.24 51.55 14.80L51.55 14.80L51.55 14.80Q50.71 15.54 49.76 15.95L49.76 15.95L49.76 15.95Q48.80 16.35 47.92 16.35L47.92 16.35L47.92 16.35Q46.63 16.35 45.96 15.53L45.96 15.53L45.96 15.53Q45.28 14.71 45.28 13.12L45.28 13.12L45.28 13.12Q45.28 12.26 45.47 11.31L45.47 11.31L45.47 11.31Q45.65 10.36 46.00 9.44L46.00 9.44L46.00 9.44Q46.34 8.51 46.82 7.68L46.82 7.68L46.82 7.68Q47.29 6.85 47.86 6.21L47.86 6.21L47.86 6.21Q48.43 5.57 49.08 5.19L49.08 5.19L49.08 5.19Q49.73 4.82 50.41 4.82L50.41 4.82L50.41 4.82Q50.64 4.82 50.83 4.85L50.83 4.85L50.83 4.85Q51.03 4.89 51.25 4.98ZM68.38 4.98L68.38 4.98L68.38 4.98Q68.64 5.10 68.92 5.27L68.92 5.27L68.92 5.27Q69.20 5.45 69.44 5.63L69.44 5.63L69.44 5.63Q69.68 5.81 69.84 5.98L69.84 5.98L69.84 5.98Q70 6.16 70.01 6.27L70.01 6.27L70.01 6.27Q69.78 6.22 69.54 6.20L69.54 6.20L69.54 6.20Q69.30 6.17 69.10 6.17L69.10 6.17L69.10 6.17Q68.47 6.17 67.85 6.48L67.85 6.48L67.85 6.48Q67.23 6.79 66.67 7.32L66.67 7.32L66.67 7.32Q66.11 7.85 65.63 8.57L65.63 8.57L65.63 8.57Q65.16 9.28 64.81 10.09L64.81 10.09L64.81 10.09Q64.47 10.91 64.27 11.77L64.27 11.77L64.27 11.77Q64.08 12.64 64.08 13.48L64.08 13.48L64.08 13.48Q64.08 14.57 64.44 15.11L64.44 15.11L64.44 15.11Q64.81 15.64 65.51 15.64L65.51 15.64L65.51 15.64Q65.84 15.64 66.23 15.51L66.23 15.51L66.23 15.51Q66.63 15.37 67.03 15.13L67.03 15.13L67.03 15.13Q67.44 14.90 67.83 14.56L67.83 14.56L67.83 14.56Q68.22 14.22 68.56 13.82L68.56 13.82L68.56 13.82Q69.05 13.23 69.44 12.48L69.44 12.48L69.44 12.48Q69.83 11.73 70.11 10.89L70.11 10.89L70.11 10.89Q70.38 10.05 70.53 9.16L70.53 9.16L70.53 9.16Q70.67 8.27 70.67 7.42L70.67 7.42L70.67 7.42Q70.67 7.08 70.66 6.85L70.66 6.85L70.66 6.85Q70.64 6.62 70.62 6.46L70.62 6.46L70.62 6.46Q70.60 6.30 70.59 6.20L70.59 6.20L70.59 6.20Q70.57 6.10 70.56 6.03L70.56 6.03L70.56 6.03Q70.73 6.12 70.93 6.24L70.93 6.24L70.93 6.24Q71.13 6.36 71.31 6.59L71.31 6.59L71.31 6.59Q71.48 6.82 71.60 7.20L71.60 7.20L71.60 7.20Q71.72 7.57 71.72 8.18L71.72 8.18L71.72 8.18Q71.72 9.16 71.49 10.10L71.49 10.10L71.49 10.10Q71.26 11.05 70.85 11.90L70.85 11.90L70.85 11.90Q70.43 12.75 69.87 13.50L69.87 13.50L69.87 13.50Q69.31 14.24 68.67 14.80L68.67 14.80L68.67 14.80Q67.83 15.54 66.88 15.95L66.88 15.95L66.88 15.95Q65.93 16.35 65.04 16.35L65.04 16.35L65.04 16.35Q63.76 16.35 63.08 15.53L63.08 15.53L63.08 15.53Q62.40 14.71 62.40 13.12L62.40 13.12L62.40 13.12Q62.40 12.26 62.59 11.31L62.59 11.31L62.59 11.31Q62.78 10.36 63.12 9.44L63.12 9.44L63.12 9.44Q63.46 8.51 63.94 7.68L63.94 7.68L63.94 7.68Q64.41 6.85 64.98 6.21L64.98 6.21L64.98 6.21Q65.55 5.57 66.20 5.19L66.20 5.19L66.20 5.19Q66.85 4.82 67.54 4.82L67.54 4.82L67.54 4.82Q67.76 4.82 67.96 4.85L67.96 4.85L67.96 4.85Q68.15 4.89 68.38 4.98ZM82.31 10.74L82.31 10.74L82.31 10.74Q83.17 9.45 84.02 8.37L84.02 8.37L84.02 8.37Q84.87 7.28 85.64 6.50L85.64 6.50L85.64 6.50Q86.41 5.71 87.05 5.28L87.05 5.28L87.05 5.28Q87.70 4.84 88.17 4.84L88.17 4.84L88.17 4.84Q88.35 4.84 88.57 4.98L88.57 4.98L88.57 4.98Q88.79 5.12 88.98 5.35L88.98 5.35L88.98 5.35Q89.17 5.57 89.29 5.83L89.29 5.83L89.29 5.83Q89.42 6.09 89.42 6.33L89.42 6.33L89.42 6.33Q88.55 6.61 87.72 7.06L87.72 7.06L87.72 7.06Q86.88 7.52 86.12 8.11L86.12 8.11L86.12 8.11Q85.36 8.71 84.66 9.44L84.66 9.44L84.66 9.44Q83.97 10.16 83.41 10.99L83.41 10.99L83.41 10.99Q83.64 11.56 83.96 12.21L83.96 12.21L83.96 12.21Q84.29 12.87 84.69 13.47L84.69 13.47L84.69 13.47Q85.08 14.08 85.53 14.60L85.53 14.60L85.53 14.60Q85.97 15.12 86.44 15.43L86.44 15.43L86.44 15.43Q86.37 15.58 86.20 15.72L86.20 15.72L86.20 15.72Q86.03 15.86 85.83 15.98L85.83 15.98L85.83 15.98Q85.64 16.10 85.42 16.17L85.42 16.17L85.42 16.17Q85.20 16.24 85.02 16.24L85.02 16.24L85.02 16.24Q84.66 16.24 84.35 15.90L84.35 15.90L84.35 15.90Q84.04 15.55 83.73 14.86L83.73 14.86L83.73 14.86Q83.41 14.17 83.07 13.14L83.07 13.14L83.07 13.14Q82.73 12.11 82.31 10.74ZM80.19 16.31L80.19 16.31L80.19 16.31Q79.66 16.18 79.31 15.87L79.31 15.87L79.31 15.87Q78.96 15.55 78.67 15.08L78.67 15.08L78.67 15.08Q78.79 14.81 78.97 14.38L78.97 14.38L78.97 14.38Q79.14 13.94 79.39 13.31L79.39 13.31L79.39 13.31Q79.65 12.67 80.00 11.78L80.00 11.78L80.00 11.78Q80.35 10.89 80.81 9.70L80.81 9.70L80.81 9.70Q81.10 8.95 81.29 8.43L81.29 8.43L81.29 8.43Q81.48 7.91 81.61 7.41L81.61 7.41L81.61 7.41Q81.75 6.92 81.87 6.31L81.87 6.31L81.87 6.31Q82.00 5.71 82.17 4.79L82.17 4.79L82.17 4.79Q82.75 4.90 83.24 5.31L83.24 5.31L83.24 5.31Q83.72 5.71 84.07 6.29L84.07 6.29L84.07 6.29Q83.92 6.48 83.71 6.88L83.71 6.88L83.71 6.88Q83.51 7.28 83.26 7.84L83.26 7.84L83.26 7.84Q83.01 8.40 82.70 9.09L82.70 9.09L82.70 9.09Q82.39 9.77 82.05 10.54L82.05 10.54L82.05 10.54Q81.30 12.22 80.86 13.62L80.86 13.62L80.86 13.62Q80.43 15.01 80.19 16.31ZM111.38 9.34L111.38 9.34L111.38 9.34Q111.83 9.34 112.09 9.59L112.09 9.59L112.09 9.59Q112.35 9.84 112.35 10.29L112.35 10.29L112.35 10.29Q112.35 10.40 112.34 10.52L112.34 10.52L112.34 10.52Q112.32 10.64 112.28 10.72L112.28 10.72L112.28 10.72Q112.10 10.70 111.87 10.68L111.87 10.68L111.87 10.68Q111.65 10.65 111.34 10.65L111.34 10.65L111.34 10.65Q110.71 10.65 110.08 10.77L110.08 10.77L110.08 10.77Q109.45 10.88 108.88 10.95L108.88 10.95L108.88 10.95Q108.25 12.43 107.84 13.73L107.84 13.73L107.84 13.73Q107.44 15.04 107.21 16.31L107.21 16.31L107.21 16.31Q106.74 16.20 106.37 15.90L106.37 15.90L106.37 15.90Q106.01 15.61 105.69 15.08L105.69 15.08L105.69 15.08Q105.78 14.85 105.92 14.54L105.92 14.54L105.92 14.54Q106.06 14.22 106.26 13.74L106.26 13.74L106.26 13.74Q106.46 13.26 106.73 12.56L106.73 12.56L106.73 12.56Q107.00 11.87 107.38 10.91L107.38 10.91L107.38 10.91Q106.79 10.71 106.61 10.22L106.61 10.22L106.61 10.22Q106.68 10.15 107.00 10.06L107.00 10.06L107.00 10.06Q107.32 9.97 107.79 9.86L107.79 9.86L107.79 9.86Q108.00 9.31 108.15 8.88L108.15 8.88L108.15 8.88Q108.30 8.46 108.43 8.07L108.43 8.07L108.43 8.07Q108.56 7.69 108.66 7.32L108.66 7.32L108.66 7.32Q108.77 6.94 108.85 6.52L108.85 6.52L108.78 6.52L108.78 6.52Q108.25 6.52 107.92 6.27L107.92 6.27L107.92 6.27Q107.59 6.02 107.59 5.61L107.59 5.61L107.59 5.61Q107.59 5.50 107.62 5.35L107.62 5.35L107.62 5.35Q107.66 5.19 107.72 5.08L107.72 5.08L107.72 5.08Q107.98 5.12 108.24 5.14L108.24 5.14L108.24 5.14Q108.50 5.15 108.92 5.15L108.92 5.15L108.92 5.15Q109.80 5.15 110.57 5.10L110.57 5.10L110.57 5.10Q111.34 5.05 111.96 5.00L111.96 5.00L111.96 5.00Q112.59 4.94 113.04 4.89L113.04 4.89L113.04 4.89Q113.48 4.84 113.72 4.84L113.72 4.84L113.72 4.84Q114.04 4.84 114.30 5.18L114.30 5.18L114.30 5.18Q114.55 5.52 114.69 6.13L114.69 6.13L114.69 6.13Q114.24 6.09 113.97 6.08L113.97 6.08L113.97 6.08Q113.69 6.06 113.48 6.06L113.48 6.06L113.48 6.06Q112.77 6.06 112.17 6.13L112.17 6.13L112.17 6.13Q111.58 6.19 111.05 6.27L111.05 6.27L111.05 6.27Q110.96 6.40 110.86 6.59L110.86 6.59L110.86 6.59Q110.75 6.79 110.59 7.15L110.59 7.15L110.59 7.15Q110.42 7.50 110.16 8.08L110.16 8.08L110.16 8.08Q109.90 8.65 109.51 9.53L109.51 9.53L109.51 9.53Q110.05 9.45 110.55 9.39L110.55 9.39L110.55 9.39Q111.05 9.34 111.38 9.34ZM126.69 4.98L126.69 4.98L126.69 4.98Q126.95 5.10 127.23 5.27L127.23 5.27L127.23 5.27Q127.51 5.45 127.75 5.63L127.75 5.63L127.75 5.63Q127.99 5.81 128.15 5.98L128.15 5.98L128.15 5.98Q128.31 6.16 128.32 6.27L128.32 6.27L128.32 6.27Q128.09 6.22 127.85 6.20L127.85 6.20L127.85 6.20Q127.61 6.17 127.41 6.17L127.41 6.17L127.41 6.17Q126.78 6.17 126.16 6.48L126.16 6.48L126.16 6.48Q125.54 6.79 124.98 7.32L124.98 7.32L124.98 7.32Q124.42 7.85 123.94 8.57L123.94 8.57L123.94 8.57Q123.47 9.28 123.12 10.09L123.12 10.09L123.12 10.09Q122.78 10.91 122.58 11.77L122.58 11.77L122.58 11.77Q122.39 12.64 122.39 13.48L122.39 13.48L122.39 13.48Q122.39 14.57 122.75 15.11L122.75 15.11L122.75 15.11Q123.12 15.64 123.82 15.64L123.82 15.64L123.82 15.64Q124.15 15.64 124.54 15.51L124.54 15.51L124.54 15.51Q124.94 15.37 125.34 15.13L125.34 15.13L125.34 15.13Q125.75 14.90 126.14 14.56L126.14 14.56L126.14 14.56Q126.53 14.22 126.87 13.82L126.87 13.82L126.87 13.82Q127.36 13.23 127.75 12.48L127.75 12.48L127.75 12.48Q128.14 11.73 128.41 10.89L128.41 10.89L128.41 10.89Q128.69 10.05 128.83 9.16L128.83 9.16L128.83 9.16Q128.98 8.27 128.98 7.42L128.98 7.42L128.98 7.42Q128.98 7.08 128.97 6.85L128.97 6.85L128.97 6.85Q128.95 6.62 128.93 6.46L128.93 6.46L128.93 6.46Q128.91 6.30 128.90 6.20L128.90 6.20L128.90 6.20Q128.88 6.10 128.87 6.03L128.87 6.03L128.87 6.03Q129.04 6.12 129.24 6.24L129.24 6.24L129.24 6.24Q129.44 6.36 129.62 6.59L129.62 6.59L129.62 6.59Q129.79 6.82 129.91 7.20L129.91 7.20L129.91 7.20Q130.03 7.57 130.03 8.18L130.03 8.18L130.03 8.18Q130.03 9.16 129.80 10.10L129.80 10.10L129.80 10.10Q129.57 11.05 129.16 11.90L129.16 11.90L129.16 11.90Q128.74 12.75 128.18 13.50L128.18 13.50L128.18 13.50Q127.62 14.24 126.98 14.80L126.98 14.80L126.98 14.80Q126.14 15.54 125.19 15.95L125.19 15.95L125.19 15.95Q124.24 16.35 123.35 16.35L123.35 16.35L123.35 16.35Q122.07 16.35 121.39 15.53L121.39 15.53L121.39 15.53Q120.71 14.71 120.71 13.12L120.71 13.12L120.71 13.12Q120.71 12.26 120.90 11.31L120.90 11.31L120.90 11.31Q121.09 10.36 121.43 9.44L121.43 9.44L121.43 9.44Q121.77 8.51 122.25 7.68L122.25 7.68L122.25 7.68Q122.72 6.85 123.29 6.21L123.29 6.21L123.29 6.21Q123.86 5.57 124.51 5.19L124.51 5.19L124.51 5.19Q125.16 4.82 125.85 4.82L125.85 4.82L125.85 4.82Q126.07 4.82 126.27 4.85L126.27 4.85L126.27 4.85Q126.46 4.89 126.69 4.98ZM146.87 7.46L146.87 7.46L146.87 7.46Q146.87 8.13 146.57 8.73L146.57 8.73L146.57 8.73Q146.27 9.32 145.74 9.79L145.74 9.79L145.74 9.79Q145.21 10.26 144.49 10.58L144.49 10.58L144.49 10.58Q143.78 10.91 142.94 11.02L142.94 11.02L142.94 11.02Q143.15 11.65 143.45 12.31L143.45 12.31L143.45 12.31Q143.75 12.98 144.10 13.59L144.10 13.59L144.10 13.59Q144.45 14.21 144.83 14.73L144.83 14.73L144.83 14.73Q145.21 15.25 145.57 15.58L145.57 15.58L145.57 15.58Q145.50 15.72 145.37 15.86L145.37 15.86L145.37 15.86Q145.24 16.00 145.06 16.12L145.06 16.12L145.06 16.12Q144.89 16.24 144.70 16.32L144.70 16.32L144.70 16.32Q144.51 16.39 144.34 16.39L144.34 16.39L144.34 16.39Q144.03 16.39 143.75 16.10L143.75 16.10L143.75 16.10Q143.47 15.81 143.19 15.17L143.19 15.17L143.19 15.17Q142.90 14.53 142.58 13.52L142.58 13.52L142.58 13.52Q142.27 12.50 141.89 11.07L141.89 11.07L141.89 11.07Q141.74 11.07 141.58 11.07L141.58 11.07L141.58 11.07Q141.43 11.07 141.34 11.05L141.34 11.05L141.34 11.05Q141.25 10.99 141.13 10.85L141.13 10.85L141.13 10.85Q140.76 11.66 140.46 12.38L140.46 12.38L140.46 12.38Q140.17 13.09 139.94 13.76L139.94 13.76L139.94 13.76Q139.71 14.42 139.53 15.04L139.53 15.04L139.53 15.04Q139.36 15.67 139.23 16.31L139.23 16.31L139.23 16.31Q138.75 16.20 138.40 15.90L138.40 15.90L138.40 15.90Q138.05 15.61 137.75 15.08L137.75 15.08L137.75 15.08Q137.80 14.95 137.87 14.83L137.87 14.83L137.87 14.83Q137.93 14.71 138.03 14.50L138.03 14.50L138.03 14.50Q138.12 14.28 138.27 13.94L138.27 13.94L138.27 13.94Q138.42 13.61 138.66 13.05L138.66 13.05L138.66 13.05Q138.91 12.49 139.25 11.68L139.25 11.68L139.25 11.68Q139.59 10.86 140.08 9.70L140.08 9.70L140.08 9.70Q140.31 9.18 140.47 8.79L140.47 8.79L140.47 8.79Q140.63 8.40 140.76 8.04L140.76 8.04L140.76 8.04Q140.88 7.69 140.99 7.33L140.99 7.33L140.99 7.33Q141.09 6.97 141.20 6.51L141.20 6.51L141.20 6.51Q140.56 6.73 140.01 7.01L140.01 7.01L140.01 7.01Q139.45 7.28 139.09 7.59L139.09 7.59L139.09 7.59Q138.96 7.50 138.83 7.34L138.83 7.34L138.83 7.34Q138.70 7.17 138.59 6.96L138.59 6.96L138.59 6.96Q138.47 6.76 138.39 6.55L138.39 6.55L138.39 6.55Q138.31 6.34 138.29 6.17L138.29 6.17L138.29 6.17Q138.71 5.89 139.32 5.66L139.32 5.66L139.32 5.66Q139.93 5.42 140.62 5.24L140.62 5.24L140.62 5.24Q141.30 5.07 142.02 4.97L142.02 4.97L142.02 4.97Q142.73 4.87 143.35 4.87L143.35 4.87L143.35 4.87Q145.03 4.87 145.95 5.56L145.95 5.56L145.95 5.56Q146.87 6.26 146.87 7.46ZM143.29 6.02L143.46 6.29L143.46 6.29Q143.36 6.41 143.15 6.79L143.15 6.79L143.15 6.79Q142.94 7.17 142.67 7.69L142.67 7.69L142.67 7.69Q142.39 8.22 142.09 8.83L142.09 8.83L142.09 8.83Q141.79 9.45 141.51 10.05L141.51 10.05L141.51 10.05Q142.56 10.05 143.44 9.86L143.44 9.86L143.44 9.86Q144.33 9.66 144.97 9.30L144.97 9.30L144.97 9.30Q145.61 8.95 145.97 8.46L145.97 8.46L145.97 8.46Q146.33 7.98 146.33 7.39L146.33 7.39L146.33 7.39Q146.33 6.69 145.82 6.32L145.82 6.32L145.82 6.32Q145.32 5.95 144.27 5.95L144.27 5.95L144.27 5.95Q144.03 5.95 143.79 5.97L143.79 5.97L143.79 5.97Q143.56 5.99 143.29 6.02L143.29 6.02ZM170.14 9.21L170.14 9.21L170.14 9.21Q170.60 9.21 170.86 9.46L170.86 9.46L170.86 9.46Q171.12 9.72 171.12 10.16L171.12 10.16L171.12 10.16Q171.12 10.28 171.10 10.39L171.10 10.39L171.10 10.39Q171.08 10.51 171.05 10.60L171.05 10.60L171.05 10.60Q170.87 10.57 170.65 10.55L170.65 10.55L170.65 10.55Q170.42 10.53 170.11 10.53L170.11 10.53L170.11 10.53Q169.51 10.53 168.90 10.63L168.90 10.63L168.90 10.63Q168.28 10.74 167.72 10.81L167.72 10.81L167.72 10.81Q167.40 11.55 167.13 12.24L167.13 12.24L167.13 12.24Q166.87 12.94 166.68 13.51L166.68 13.51L166.68 13.51Q166.49 14.08 166.38 14.50L166.38 14.50L166.38 14.50Q166.28 14.92 166.26 15.13L166.26 15.13L166.26 15.13Q167.40 14.90 168.55 14.73L168.55 14.73L168.55 14.73Q169.71 14.56 170.98 14.48L170.98 14.48L170.98 14.48Q171.14 14.71 171.24 14.99L171.24 14.99L171.24 14.99Q171.35 15.27 171.35 15.60L171.35 15.60L171.35 15.60Q171.35 15.68 171.35 15.78L171.35 15.78L171.35 15.78Q171.35 15.88 171.32 15.97L171.32 15.97L171.32 15.97Q170.93 15.96 170.49 15.95L170.49 15.95L170.49 15.95Q170.06 15.95 169.36 15.95L169.36 15.95L169.36 15.95Q168.90 15.95 168.48 15.97L168.48 15.97L168.48 15.97Q168.07 15.99 167.65 16.03L167.65 16.03L167.65 16.03Q167.23 16.07 166.76 16.14L166.76 16.14L166.76 16.14Q166.29 16.21 165.70 16.31L165.70 16.31L165.70 16.31Q165.06 16.06 164.46 15.08L164.46 15.08L164.46 15.08Q164.70 14.57 165.12 13.54L165.12 13.54L165.12 13.54Q165.55 12.52 166.21 10.79L166.21 10.79L166.21 10.79Q165.58 10.60 165.38 10.09L165.38 10.09L165.38 10.09Q165.45 10.02 165.79 9.92L165.79 9.92L165.79 9.92Q166.12 9.81 166.61 9.70L166.61 9.70L166.61 9.70Q166.82 9.16 166.97 8.75L166.97 8.75L166.97 8.75Q167.12 8.34 167.23 7.99L167.23 7.99L167.23 7.99Q167.34 7.63 167.43 7.29L167.43 7.29L167.43 7.29Q167.52 6.94 167.61 6.54L167.61 6.54L167.61 6.54Q167.12 6.51 166.84 6.27L166.84 6.27L166.84 6.27Q166.56 6.02 166.56 5.63L166.56 5.63L166.56 5.63Q166.56 5.52 166.59 5.36L166.59 5.36L166.59 5.36Q166.63 5.21 166.67 5.10L166.67 5.10L166.67 5.10Q166.95 5.14 167.21 5.15L167.21 5.15L167.21 5.15Q167.47 5.17 167.89 5.17L167.89 5.17L167.89 5.17Q168.77 5.17 169.54 5.12L169.54 5.12L169.54 5.12Q170.31 5.07 170.93 5.01L170.93 5.01L170.93 5.01Q171.56 4.96 172.00 4.91L172.00 4.91L172.00 4.91Q172.45 4.86 172.69 4.86L172.69 4.86L172.69 4.86Q173.01 4.86 173.26 5.19L173.26 5.19L173.26 5.19Q173.52 5.53 173.64 6.15L173.64 6.15L173.64 6.15Q173.21 6.10 172.94 6.09L172.94 6.09L172.94 6.09Q172.66 6.08 172.45 6.08L172.45 6.08L172.45 6.08Q171.68 6.08 171.04 6.15L171.04 6.15L171.04 6.15Q170.41 6.23 169.82 6.31L169.82 6.31L169.82 6.31Q169.74 6.44 169.63 6.64L169.63 6.64L169.63 6.64Q169.53 6.83 169.36 7.18L169.36 7.18L169.36 7.18Q169.19 7.53 168.94 8.06L168.94 8.06L168.94 8.06Q168.70 8.60 168.35 9.39L168.35 9.39L168.35 9.39Q168.88 9.31 169.35 9.26L169.35 9.26L169.35 9.26Q169.82 9.21 170.14 9.21ZM184.34 16.07L184.34 16.07L184.34 16.07Q184.02 16.24 183.65 16.24L183.65 16.24L183.65 16.24Q183.20 16.18 182.79 16.02L182.79 16.02L182.79 16.02Q182.38 15.85 182.18 15.61L182.18 15.61L182.18 15.61Q182.07 14.92 182 14.35L182 14.35L182 14.35Q181.93 13.78 181.89 13.27L181.89 13.27L181.89 13.27Q181.85 12.75 181.83 12.29L181.83 12.29L181.83 12.29Q181.82 11.82 181.82 11.34L181.82 11.34L181.82 11.34Q181.82 10.71 181.83 10.01L181.83 10.01L181.83 10.01Q181.85 9.31 181.87 8.52L181.87 8.52L181.87 8.52Q181.89 7.73 181.90 6.82L181.90 6.82L181.90 6.82Q181.92 5.92 181.92 4.86L181.92 4.86L181.92 4.86Q182.10 4.86 182.46 4.96L182.46 4.96L182.46 4.96Q182.83 5.07 183.18 5.21L183.18 5.21L183.18 5.21Q183.54 5.35 183.82 5.49L183.82 5.49L183.82 5.49Q184.10 5.64 184.13 5.74L184.13 5.74L184.13 5.74Q183.99 6.13 183.88 6.76L183.88 6.76L183.88 6.76Q183.78 7.39 183.72 8.16L183.72 8.16L183.72 8.16Q183.65 8.93 183.62 9.79L183.62 9.79L183.62 9.79Q183.60 10.64 183.60 11.48L183.60 11.48L183.60 11.48Q183.60 12.11 183.61 12.61L183.61 12.61L183.61 12.61Q183.62 13.10 183.65 13.50L183.65 13.50L183.65 13.50Q183.67 13.90 183.71 14.25L183.71 14.25L183.71 14.25Q183.75 14.59 183.81 14.92L183.81 14.92L183.81 14.92Q184.20 13.73 184.67 12.54L184.67 12.54L184.67 12.54Q185.14 11.35 185.63 10.25L185.63 10.25L185.63 10.25Q186.13 9.16 186.62 8.20L186.62 8.20L186.62 8.20Q187.11 7.25 187.55 6.54L187.55 6.54L187.55 6.54Q187.99 5.84 188.34 5.43L188.34 5.43L188.34 5.43Q188.69 5.01 188.92 4.98L188.92 4.98L188.92 4.98Q189.07 5.01 189.25 5.10L189.25 5.10L189.25 5.10Q189.42 5.19 189.57 5.32L189.57 5.32L189.57 5.32Q189.73 5.45 189.85 5.60L189.85 5.60L189.85 5.60Q189.98 5.75 190.05 5.91L190.05 5.91L190.05 5.91Q189.53 6.09 188.94 6.76L188.94 6.76L188.94 6.76Q188.34 7.43 187.74 8.38L187.74 8.38L187.74 8.38Q187.14 9.32 186.57 10.44L186.57 10.44L186.57 10.44Q186.00 11.55 185.55 12.61L185.55 12.61L185.55 12.61Q185.09 13.68 184.77 14.60L184.77 14.60L184.77 14.60Q184.45 15.53 184.34 16.07ZM201.31 9.21L201.31 9.21L201.31 9.21Q201.77 9.21 202.03 9.46L202.03 9.46L202.03 9.46Q202.29 9.72 202.29 10.16L202.29 10.16L202.29 10.16Q202.29 10.28 202.27 10.39L202.27 10.39L202.27 10.39Q202.24 10.51 202.22 10.60L202.22 10.60L202.22 10.60Q202.03 10.57 201.81 10.55L201.81 10.55L201.81 10.55Q201.59 10.53 201.28 10.53L201.28 10.53L201.28 10.53Q200.68 10.53 200.06 10.63L200.06 10.63L200.06 10.63Q199.44 10.74 198.88 10.81L198.88 10.81L198.88 10.81Q198.56 11.55 198.30 12.24L198.30 12.24L198.30 12.24Q198.03 12.94 197.84 13.51L197.84 13.51L197.84 13.51Q197.65 14.08 197.55 14.50L197.55 14.50L197.55 14.50Q197.44 14.92 197.43 15.13L197.43 15.13L197.43 15.13Q198.56 14.90 199.72 14.73L199.72 14.73L199.72 14.73Q200.87 14.56 202.15 14.48L202.15 14.48L202.15 14.48Q202.30 14.71 202.41 14.99L202.41 14.99L202.41 14.99Q202.51 15.27 202.51 15.60L202.51 15.60L202.51 15.60Q202.51 15.68 202.51 15.78L202.51 15.78L202.51 15.78Q202.51 15.88 202.48 15.97L202.48 15.97L202.48 15.97Q202.09 15.96 201.66 15.95L201.66 15.95L201.66 15.95Q201.22 15.95 200.52 15.95L200.52 15.95L200.52 15.95Q200.06 15.95 199.65 15.97L199.65 15.97L199.65 15.97Q199.23 15.99 198.81 16.03L198.81 16.03L198.81 16.03Q198.39 16.07 197.93 16.14L197.93 16.14L197.93 16.14Q197.46 16.21 196.87 16.31L196.87 16.31L196.87 16.31Q196.22 16.06 195.62 15.08L195.62 15.08L195.62 15.08Q195.86 14.57 196.29 13.54L196.29 13.54L196.29 13.54Q196.71 12.52 197.37 10.79L197.37 10.79L197.37 10.79Q196.74 10.60 196.55 10.09L196.55 10.09L196.55 10.09Q196.62 10.02 196.95 9.92L196.95 9.92L196.95 9.92Q197.29 9.81 197.78 9.70L197.78 9.70L197.78 9.70Q197.99 9.16 198.14 8.75L198.14 8.75L198.14 8.75Q198.28 8.34 198.39 7.99L198.39 7.99L198.39 7.99Q198.51 7.63 198.60 7.29L198.60 7.29L198.60 7.29Q198.69 6.94 198.77 6.54L198.77 6.54L198.77 6.54Q198.28 6.51 198.00 6.27L198.00 6.27L198.00 6.27Q197.72 6.02 197.72 5.63L197.72 5.63L197.72 5.63Q197.72 5.52 197.76 5.36L197.76 5.36L197.76 5.36Q197.79 5.21 197.83 5.10L197.83 5.10L197.83 5.10Q198.11 5.14 198.37 5.15L198.37 5.15L198.37 5.15Q198.63 5.17 199.05 5.17L199.05 5.17L199.05 5.17Q199.93 5.17 200.70 5.12L200.70 5.12L200.70 5.12Q201.47 5.07 202.10 5.01L202.10 5.01L202.10 5.01Q202.72 4.96 203.17 4.91L203.17 4.91L203.17 4.91Q203.62 4.86 203.85 4.86L203.85 4.86L203.85 4.86Q204.18 4.86 204.43 5.19L204.43 5.19L204.43 5.19Q204.68 5.53 204.81 6.15L204.81 6.15L204.81 6.15Q204.37 6.10 204.10 6.09L204.10 6.09L204.10 6.09Q203.83 6.08 203.62 6.08L203.62 6.08L203.62 6.08Q202.85 6.08 202.21 6.15L202.21 6.15L202.21 6.15Q201.57 6.23 200.98 6.31L200.98 6.31L200.98 6.31Q200.90 6.44 200.80 6.64L200.80 6.64L200.80 6.64Q200.69 6.83 200.52 7.18L200.52 7.18L200.52 7.18Q200.35 7.53 200.11 8.06L200.11 8.06L200.11 8.06Q199.86 8.60 199.51 9.39L199.51 9.39L199.51 9.39Q200.05 9.31 200.52 9.26L200.52 9.26L200.52 9.26Q200.98 9.21 201.31 9.21ZM220.57 7.46L220.57 7.46L220.57 7.46Q220.57 8.13 220.27 8.73L220.27 8.73L220.27 8.73Q219.97 9.32 219.44 9.79L219.44 9.79L219.44 9.79Q218.90 10.26 218.19 10.58L218.19 10.58L218.19 10.58Q217.48 10.91 216.64 11.02L216.64 11.02L216.64 11.02Q216.85 11.65 217.15 12.31L217.15 12.31L217.15 12.31Q217.45 12.98 217.80 13.59L217.80 13.59L217.80 13.59Q218.15 14.21 218.53 14.73L218.53 14.73L218.53 14.73Q218.90 15.25 219.27 15.58L219.27 15.58L219.27 15.58Q219.20 15.72 219.07 15.86L219.07 15.86L219.07 15.86Q218.93 16.00 218.76 16.12L218.76 16.12L218.76 16.12Q218.58 16.24 218.39 16.32L218.39 16.32L218.39 16.32Q218.20 16.39 218.04 16.39L218.04 16.39L218.04 16.39Q217.73 16.39 217.45 16.10L217.45 16.10L217.45 16.10Q217.17 15.81 216.88 15.17L216.88 15.17L216.88 15.17Q216.59 14.53 216.28 13.52L216.28 13.52L216.28 13.52Q215.96 12.50 215.59 11.07L215.59 11.07L215.59 11.07Q215.43 11.07 215.28 11.07L215.28 11.07L215.28 11.07Q215.12 11.07 215.04 11.05L215.04 11.05L215.04 11.05Q214.94 10.99 214.83 10.85L214.83 10.85L214.83 10.85Q214.45 11.66 214.16 12.38L214.16 12.38L214.16 12.38Q213.86 13.09 213.63 13.76L213.63 13.76L213.63 13.76Q213.40 14.42 213.23 15.04L213.23 15.04L213.23 15.04Q213.05 15.67 212.93 16.31L212.93 16.31L212.93 16.31Q212.45 16.20 212.10 15.90L212.10 15.90L212.10 15.90Q211.75 15.61 211.44 15.08L211.44 15.08L211.44 15.08Q211.50 14.95 211.56 14.83L211.56 14.83L211.56 14.83Q211.62 14.71 211.72 14.50L211.72 14.50L211.72 14.50Q211.82 14.28 211.97 13.94L211.97 13.94L211.97 13.94Q212.11 13.61 212.36 13.05L212.36 13.05L212.36 13.05Q212.60 12.49 212.95 11.68L212.95 11.68L212.95 11.68Q213.29 10.86 213.78 9.70L213.78 9.70L213.78 9.70Q214.00 9.18 214.17 8.79L214.17 8.79L214.17 8.79Q214.33 8.40 214.45 8.04L214.45 8.04L214.45 8.04Q214.58 7.69 214.68 7.33L214.68 7.33L214.68 7.33Q214.79 6.97 214.90 6.51L214.90 6.51L214.90 6.51Q214.26 6.73 213.70 7.01L213.70 7.01L213.70 7.01Q213.15 7.28 212.79 7.59L212.79 7.59L212.79 7.59Q212.66 7.50 212.53 7.34L212.53 7.34L212.53 7.34Q212.39 7.17 212.28 6.96L212.28 6.96L212.28 6.96Q212.17 6.76 212.09 6.55L212.09 6.55L212.09 6.55Q212.00 6.34 211.99 6.17L211.99 6.17L211.99 6.17Q212.41 5.89 213.02 5.66L213.02 5.66L213.02 5.66Q213.63 5.42 214.31 5.24L214.31 5.24L214.31 5.24Q215.00 5.07 215.71 4.97L215.71 4.97L215.71 4.97Q216.43 4.87 217.04 4.87L217.04 4.87L217.04 4.87Q218.72 4.87 219.65 5.56L219.65 5.56L219.65 5.56Q220.57 6.26 220.57 7.46ZM216.99 6.02L217.15 6.29L217.15 6.29Q217.06 6.41 216.85 6.79L216.85 6.79L216.85 6.79Q216.64 7.17 216.36 7.69L216.36 7.69L216.36 7.69Q216.09 8.22 215.79 8.83L215.79 8.83L215.79 8.83Q215.49 9.45 215.21 10.05L215.21 10.05L215.21 10.05Q216.26 10.05 217.14 9.86L217.14 9.86L217.14 9.86Q218.02 9.66 218.67 9.30L218.67 9.30L218.67 9.30Q219.31 8.95 219.67 8.46L219.67 8.46L219.67 8.46Q220.02 7.98 220.02 7.39L220.02 7.39L220.02 7.39Q220.02 6.69 219.52 6.32L219.52 6.32L219.52 6.32Q219.02 5.95 217.97 5.95L217.97 5.95L217.97 5.95Q217.73 5.95 217.49 5.97L217.49 5.97L217.49 5.97Q217.25 5.99 216.99 6.02L216.99 6.02ZM232.15 10.35L232.15 10.35L232.15 10.35Q233.20 9.20 234.03 7.91L234.03 7.91L234.03 7.91Q234.86 6.62 235.58 5.01L235.58 5.01L235.58 5.01Q235.94 5.05 236.28 5.21L236.28 5.21L236.28 5.21Q236.61 5.36 236.81 5.56L236.81 5.56L236.81 5.56Q236.04 6.48 235.42 7.24L235.42 7.24L235.42 7.24Q234.79 7.99 234.28 8.66L234.28 8.66L234.28 8.66Q233.76 9.32 233.32 9.93L233.32 9.93L233.32 9.93Q232.88 10.54 232.46 11.16L232.46 11.16L232.46 11.16Q232.25 11.87 232.06 12.60L232.06 12.60L232.06 12.60Q231.88 13.33 231.74 13.99L231.74 13.99L231.74 13.99Q231.60 14.66 231.53 15.22L231.53 15.22L231.53 15.22Q231.45 15.79 231.45 16.20L231.45 16.20L231.45 16.20Q231.29 16.20 230.96 16.14L230.96 16.14L230.96 16.14Q230.62 16.07 230.27 15.99L230.27 15.99L230.27 15.99Q229.92 15.90 229.64 15.82L229.64 15.82L229.64 15.82Q229.35 15.74 229.29 15.68L229.29 15.68L229.29 15.68Q229.52 15.30 229.73 14.75L229.73 14.75L229.73 14.75Q229.95 14.20 230.16 13.59L230.16 13.59L230.16 13.59Q230.37 12.98 230.57 12.36L230.57 12.36L230.57 12.36Q230.76 11.73 230.93 11.20L230.93 11.20L230.93 11.20Q230.58 10.11 230.25 9.15L230.25 9.15L230.25 9.15Q229.92 8.19 229.61 7.41L229.61 7.41L229.61 7.41Q229.31 6.64 229.03 6.08L229.03 6.08L229.03 6.08Q228.75 5.52 228.49 5.22L228.49 5.22L228.49 5.22Q228.63 5.17 228.92 5.11L228.92 5.11L228.92 5.11Q229.21 5.05 229.55 5.00L229.55 5.00L229.55 5.00Q229.89 4.94 230.25 4.91L230.25 4.91L230.25 4.91Q230.61 4.87 230.89 4.86L230.89 4.86L230.89 4.86Q230.89 5.21 230.95 5.71L230.95 5.71L230.95 5.71Q231.01 6.22 231.12 6.79L231.12 6.79L231.12 6.79Q231.22 7.36 231.36 7.95L231.36 7.95L231.36 7.95Q231.50 8.54 231.64 9.03L231.64 9.03L231.64 9.03Q231.78 9.52 231.92 9.88L231.92 9.88L231.92 9.88Q232.05 10.23 232.15 10.35ZM256.16 10.74L256.16 10.74L256.16 10.74Q257.03 9.45 257.87 8.37L257.87 8.37L257.87 8.37Q258.72 7.28 259.49 6.50L259.49 6.50L259.49 6.50Q260.26 5.71 260.90 5.28L260.90 5.28L260.90 5.28Q261.55 4.84 262.02 4.84L262.02 4.84L262.02 4.84Q262.21 4.84 262.42 4.98L262.42 4.98L262.42 4.98Q262.64 5.12 262.83 5.35L262.83 5.35L262.83 5.35Q263.02 5.57 263.14 5.83L263.14 5.83L263.14 5.83Q263.27 6.09 263.27 6.33L263.27 6.33L263.27 6.33Q262.40 6.61 261.57 7.06L261.57 7.06L261.57 7.06Q260.74 7.52 259.97 8.11L259.97 8.11L259.97 8.11Q259.21 8.71 258.52 9.44L258.52 9.44L258.52 9.44Q257.82 10.16 257.26 10.99L257.26 10.99L257.26 10.99Q257.49 11.56 257.82 12.21L257.82 12.21L257.82 12.21Q258.15 12.87 258.54 13.47L258.54 13.47L258.54 13.47Q258.93 14.08 259.38 14.60L259.38 14.60L259.38 14.60Q259.83 15.12 260.29 15.43L260.29 15.43L260.29 15.43Q260.22 15.58 260.05 15.72L260.05 15.72L260.05 15.72Q259.88 15.86 259.69 15.98L259.69 15.98L259.69 15.98Q259.49 16.10 259.27 16.17L259.27 16.17L259.27 16.17Q259.06 16.24 258.87 16.24L258.87 16.24L258.87 16.24Q258.51 16.24 258.20 15.90L258.20 15.90L258.20 15.90Q257.89 15.55 257.58 14.86L257.58 14.86L257.58 14.86Q257.26 14.17 256.92 13.14L256.92 13.14L256.92 13.14Q256.58 12.11 256.16 10.74ZM254.04 16.31L254.04 16.31L254.04 16.31Q253.51 16.18 253.16 15.87L253.16 15.87L253.16 15.87Q252.81 15.55 252.52 15.08L252.52 15.08L252.52 15.08Q252.64 14.81 252.82 14.38L252.82 14.38L252.82 14.38Q252.99 13.94 253.25 13.31L253.25 13.31L253.25 13.31Q253.50 12.67 253.85 11.78L253.85 11.78L253.85 11.78Q254.20 10.89 254.66 9.70L254.66 9.70L254.66 9.70Q254.95 8.95 255.14 8.43L255.14 8.43L255.14 8.43Q255.33 7.91 255.47 7.41L255.47 7.41L255.47 7.41Q255.60 6.92 255.72 6.31L255.72 6.31L255.72 6.31Q255.85 5.71 256.02 4.79L256.02 4.79L256.02 4.79Q256.61 4.90 257.09 5.31L257.09 5.31L257.09 5.31Q257.57 5.71 257.92 6.29L257.92 6.29L257.92 6.29Q257.77 6.48 257.57 6.88L257.57 6.88L257.57 6.88Q257.36 7.28 257.11 7.84L257.11 7.84L257.11 7.84Q256.86 8.40 256.55 9.09L256.55 9.09L256.55 9.09Q256.24 9.77 255.91 10.54L255.91 10.54L255.91 10.54Q255.15 12.22 254.72 13.62L254.72 13.62L254.72 13.62Q254.28 15.01 254.04 16.31ZM269.29 14.38L269.29 14.38L269.29 14.38Q269.29 13.87 269.45 13.07L269.45 13.07L269.45 13.07Q269.61 12.26 269.87 11.33L269.87 11.33L269.87 11.33Q270.13 10.40 270.47 9.43L270.47 9.43L270.47 9.43Q270.80 8.46 271.15 7.60L271.15 7.60L271.15 7.60Q271.50 6.75 271.84 6.10L271.84 6.10L271.84 6.10Q272.17 5.46 272.44 5.18L272.44 5.18L272.44 5.18Q272.58 5.19 272.81 5.29L272.81 5.29L272.81 5.29Q273.04 5.38 273.28 5.50L273.28 5.50L273.28 5.50Q273.52 5.63 273.71 5.78L273.71 5.78L273.71 5.78Q273.91 5.92 273.97 6.05L273.97 6.05L273.97 6.05Q273.56 6.41 273.16 7.15L273.16 7.15L273.16 7.15Q272.76 7.88 272.39 8.82L272.39 8.82L272.39 8.82Q272.02 9.76 271.70 10.80L271.70 10.80L271.70 10.80Q271.38 11.84 271.14 12.82L271.14 12.82L271.14 12.82Q270.90 13.80 270.77 14.64L270.77 14.64L270.77 14.64Q270.63 15.48 270.63 16.00L270.63 16.00L270.63 16.00Q270.63 16.24 270.68 16.30L270.68 16.30L270.68 16.30Q270.37 16.28 270.23 16.19L270.23 16.19L270.23 16.19Q270.09 16.10 270.01 16.00L270.01 16.00L270.01 16.00Q269.93 15.89 269.87 15.79L269.87 15.79L269.87 15.79Q269.81 15.68 269.68 15.62L269.68 15.62L269.68 15.62Q269.58 15.58 269.51 15.43L269.51 15.43L269.51 15.43Q269.44 15.27 269.40 15.09L269.40 15.09L269.40 15.09Q269.35 14.90 269.32 14.70L269.32 14.70L269.32 14.70Q269.29 14.50 269.29 14.38ZM281.22 14.45L281.22 14.45L281.22 14.45Q281.43 13.99 281.72 13.26L281.72 13.26L281.72 13.26Q282.02 12.53 282.34 11.68L282.34 11.68L282.34 11.68Q282.66 10.84 283.00 9.95L283.00 9.95L283.00 9.95Q283.33 9.06 283.63 8.26L283.63 8.26L283.63 8.26Q283.92 7.46 284.14 6.83L284.14 6.83L284.14 6.83Q284.35 6.20 284.45 5.87L284.45 5.87L284.45 5.87Q283.57 6.23 282.94 6.97L282.94 6.97L282.94 6.97Q282.31 7.71 281.99 8.83L281.99 8.83L281.99 8.83Q281.67 8.72 281.40 8.43L281.40 8.43L281.40 8.43Q281.13 8.15 281.05 7.71L281.05 7.71L281.05 7.71Q281.19 7.07 281.58 6.54L281.58 6.54L281.58 6.54Q281.96 6.01 282.55 5.63L282.55 5.63L282.55 5.63Q283.14 5.25 283.91 5.05L283.91 5.05L283.91 5.05Q284.68 4.84 285.56 4.84L285.56 4.84L285.56 4.84Q286.68 4.84 287.62 5.17L287.62 5.17L287.62 5.17Q288.55 5.50 289.23 6.09L289.23 6.09L289.23 6.09Q289.90 6.68 290.28 7.50L290.28 7.50L290.28 7.50Q290.65 8.33 290.65 9.34L290.65 9.34L290.65 9.34Q290.65 10.71 290.15 11.96L290.15 11.96L290.15 11.96Q289.65 13.20 288.79 14.15L288.79 14.15L288.79 14.15Q287.92 15.11 286.79 15.67L286.79 15.67L286.79 15.67Q285.66 16.24 284.41 16.24L284.41 16.24L284.41 16.24Q283.26 16.24 282.44 15.79L282.44 15.79L282.44 15.79Q281.62 15.33 281.22 14.45ZM286.16 5.54L286.16 5.54L286.16 5.54Q285.46 5.54 284.83 5.74L284.83 5.74L284.83 5.74Q285.45 5.96 285.85 6.21L285.85 6.21L285.85 6.21Q286.26 6.45 286.41 6.59L286.41 6.59L286.41 6.59Q286.30 6.75 286.08 7.14L286.08 7.14L286.08 7.14Q285.87 7.53 285.58 8.09L285.58 8.09L285.58 8.09Q285.29 8.65 284.97 9.32L284.97 9.32L284.97 9.32Q284.65 9.98 284.34 10.68L284.34 10.68L284.34 10.68Q283.54 12.46 283.19 13.48L283.19 13.48L283.19 13.48Q282.83 14.50 282.83 14.90L282.83 14.90L282.83 14.90Q283.02 14.97 283.30 14.99L283.30 14.99L283.30 14.99Q283.58 15.02 283.91 15.02L283.91 15.02L283.91 15.02Q285.04 15.02 286.06 14.50L286.06 14.50L286.06 14.50Q287.07 13.97 287.83 13.09L287.83 13.09L287.83 13.09Q288.60 12.21 289.04 11.04L289.04 11.04L289.04 11.04Q289.48 9.87 289.48 8.58L289.48 8.58L289.48 8.58Q289.48 7.14 288.58 6.34L288.58 6.34L288.58 6.34Q287.69 5.54 286.16 5.54Z"></path></g></svg>