<svg data-v-423bf9ae="" xmlns="http://www.w3.org/2000/svg" viewBox="0 0 453.93406386418224 60" class="font"><!----><!----><!----><g data-v-423bf9ae="" id="5744a0b7-ffcf-49b7-9858-269ab7a2172d" fill="black" transform="matrix(4.395604518446158,0,0,4.395604518446158,-6.63735965786455,-12.439559498170297)"><path d="M7.57 10.36L7.57 8.58L5.36 8.57L5.36 8.57Q3.98 8.57 3.16 8.58L3.16 8.58L3.16 10.36L3.16 10.36Q3.16 10.88 3.23 11.87L3.23 11.87L3.23 11.87Q3.29 12.87 3.37 13.19L3.37 13.19L3.37 13.29L1.51 13.29L1.51 13.19L1.51 13.19Q1.72 12.38 1.72 10.35L1.72 10.35L1.72 6.43L1.72 6.43Q1.72 4.40 1.51 3.58L1.51 3.58L1.51 3.49L3.37 3.49L3.37 3.58L3.37 3.58Q3.29 3.91 3.23 4.91L3.23 4.91L3.23 4.91Q3.16 5.91 3.16 6.43L3.16 6.43L3.16 7.70L7.57 7.70L7.57 6.43L7.57 6.43Q7.57 5.91 7.51 4.91L7.51 4.91L7.51 4.91Q7.45 3.91 7.36 3.58L7.36 3.58L7.36 3.49L9.23 3.49L9.23 3.58L9.23 3.58Q9.02 4.40 9.02 6.43L9.02 6.43L9.02 10.35L9.02 10.35Q9.02 12.38 9.23 13.19L9.23 13.19L9.23 13.29L7.36 13.29L7.36 13.19L7.36 13.19Q7.45 12.87 7.51 11.87L7.51 11.87L7.51 11.87Q7.57 10.88 7.57 10.36L7.57 10.36ZM12.10 11.34L12.10 11.34L12.10 8.62L12.10 8.62Q12.10 7.38 11.40 6.89L11.40 6.89L11.40 6.72L13.37 6.38L13.45 6.52L13.45 6.52Q13.41 6.93 13.41 7.69L13.41 7.69L13.41 10.99L13.41 10.99Q13.41 12.39 13.76 13.19L13.76 13.19L13.76 13.29L11.87 13.29L11.87 13.19L11.87 13.19Q12.10 12.53 12.10 11.34ZM13.27 3.37L13.27 3.37L13.27 3.37Q13.47 3.54 13.47 4.19L13.47 4.19L13.47 4.19Q13.47 4.34 13.45 4.47L13.45 4.47L13.34 4.56L13.34 4.56Q12.78 4.72 12.01 4.79L12.01 4.79L11.89 4.73L11.89 4.73Q11.68 4.37 11.68 3.77L11.68 3.77L11.68 3.77Q11.68 3.70 11.68 3.63L11.68 3.63L11.79 3.53L11.79 3.53Q12.46 3.30 13.08 3.30L13.08 3.30L13.08 3.30Q13.15 3.30 13.27 3.37ZM15.81 11.34L15.81 11.34L15.81 8.62L15.81 8.62Q15.81 7.38 15.11 6.89L15.11 6.89L15.11 6.72L17.08 6.38L17.16 6.52L17.16 6.52Q17.12 6.93 17.12 7.69L17.12 7.69L17.12 10.99L17.12 10.99Q17.12 12.39 17.47 13.19L17.47 13.19L17.47 13.29L15.58 13.29L15.58 13.19L15.58 13.19Q15.81 12.53 15.81 11.34ZM16.98 3.37L16.98 3.37L16.98 3.37Q17.18 3.54 17.18 4.19L17.18 4.19L17.18 4.19Q17.18 4.34 17.16 4.47L17.16 4.47L17.05 4.56L17.05 4.56Q16.49 4.72 15.72 4.79L15.72 4.79L15.60 4.73L15.60 4.73Q15.39 4.37 15.39 3.77L15.39 3.77L15.39 3.77Q15.39 3.70 15.39 3.63L15.39 3.63L15.50 3.53L15.50 3.53Q16.17 3.30 16.79 3.30L16.79 3.30L16.79 3.30Q16.86 3.30 16.98 3.37ZM21.07 13.12L21.07 13.29L19.26 13.29L19.26 13.12L19.26 13.12Q19.50 12.42 19.50 10.91L19.50 10.91L19.50 5.07L19.50 5.07Q19.50 3.95 18.86 3.33L18.86 3.33L18.86 3.16L20.78 2.83L20.86 2.97L20.86 2.97Q20.82 3.37 20.82 5.66L20.82 5.66L20.83 10.91L20.83 10.91Q20.83 12.42 21.07 13.12L21.07 13.12ZM30.11 13.45L30.11 13.45L30.11 13.45Q28.08 13.45 26.89 12.04L26.89 12.04L26.89 12.04Q25.69 10.63 25.69 8.46L25.69 8.46L25.69 8.46Q25.69 6.30 27.05 4.79L27.05 4.79L27.05 4.79Q28.41 3.29 30.55 3.29L30.55 3.29L30.55 3.29Q31.93 3.29 32.93 3.98L32.93 3.98L32.93 3.98Q34.86 5.31 34.86 8.13L34.86 8.13L34.86 8.13Q34.86 10.44 33.50 11.95L33.50 11.95L33.50 11.95Q32.13 13.45 30.11 13.45ZM33.28 8.51L33.28 8.51L33.28 8.51Q33.28 6.72 32.61 5.59L32.61 5.59L32.61 5.59Q31.86 4.31 30.11 4.31L30.11 4.31L30.11 4.31Q28.88 4.31 28.18 4.75L28.18 4.75L28.18 4.75Q27.78 5.25 27.52 6.17L27.52 6.17L27.52 6.17Q27.27 7.08 27.27 8.22L27.27 8.22L27.27 8.22Q27.27 9.37 27.57 10.28L27.57 10.28L27.57 10.28Q27.86 11.20 28.62 11.83L28.62 11.83L28.62 11.83Q29.39 12.46 30.50 12.46L30.50 12.46L30.50 12.46Q31.61 12.46 32.34 12.00L32.34 12.00L32.34 12.00Q33.28 10.95 33.28 8.51ZM40.28 6.40L40.28 6.40L40.28 6.40Q40.71 6.40 40.92 6.50L40.92 6.50L40.92 6.50Q40.92 6.58 40.92 6.66L40.92 6.66L40.92 6.66Q40.92 7.49 40.67 8.16L40.67 8.16L40.67 8.16Q40.04 7.76 39.24 7.76L39.24 7.76L39.24 7.76Q38.81 7.76 38.37 7.91L38.37 7.91L38.37 10.91L38.37 10.91Q38.37 12.26 38.78 13.19L38.78 13.19L38.78 13.29L36.82 13.29L36.82 13.19L36.82 13.19Q37.06 12.49 37.06 11.33L37.06 11.33L37.06 8.95L37.06 8.95Q37.06 8.34 36.81 7.76L36.81 7.76L36.81 7.76Q36.57 7.18 36.25 6.99L36.25 6.99L36.23 6.82L37.88 6.38L37.88 6.38Q38.11 6.76 38.25 7.27L38.25 7.27L38.25 7.27Q39.09 6.40 40.28 6.40ZM43.71 11.09L43.71 11.09Q43.41 11.24 43.22 11.44L43.22 11.44L43.22 11.44Q43.02 11.63 43.02 11.75L43.02 11.75L43.02 11.75Q43.02 11.87 43.08 11.94L43.08 11.94L43.08 11.94Q43.13 12.01 43.27 12.07L43.27 12.07L43.27 12.07Q43.41 12.12 43.55 12.16L43.55 12.16L43.55 12.16Q43.69 12.19 43.94 12.24L43.94 12.24L43.94 12.24Q44.18 12.28 44.37 12.31L44.37 12.31L44.37 12.31Q44.56 12.33 44.88 12.38L44.88 12.38L44.88 12.38Q45.21 12.43 45.42 12.46L45.42 12.46L45.42 12.46Q46.66 12.64 47.22 12.98L47.22 12.98L47.22 12.98Q47.78 13.31 47.78 14.11L47.78 14.11L47.78 14.11Q47.78 15.25 46.73 15.86L46.73 15.86L46.73 15.86Q45.68 16.48 44.23 16.48L44.23 16.48L44.23 16.48Q43.18 16.48 42.31 16.14L42.31 16.14L42.31 16.14Q41.82 15.95 41.52 15.57L41.52 15.57L41.52 15.57Q41.23 15.20 41.23 14.67L41.23 14.67L41.23 14.67Q41.23 13.57 42.53 13.02L42.53 13.02L42.53 13.02Q41.83 12.73 41.83 12.12L41.83 12.12L41.83 12.12Q41.83 11.51 43.02 10.86L43.02 10.86L43.02 10.86Q41.79 10.23 41.79 8.81L41.79 8.81L41.79 8.81Q41.79 7.69 42.53 7.06L42.53 7.06L42.53 7.06Q43.27 6.44 44.34 6.44L44.34 6.44L44.34 6.44Q45.40 6.44 46.05 6.80L46.05 6.80L46.05 6.80Q46.55 6.80 47.70 6.69L47.70 6.69L48.08 7.49L46.80 7.46L46.80 7.46Q47.17 8.01 47.17 8.75L47.17 8.75L47.17 8.75Q47.17 9.88 46.42 10.53L46.42 10.53L46.42 10.53Q45.68 11.17 44.51 11.17L44.51 11.17L44.51 11.17Q44.09 11.17 43.71 11.09L43.71 11.09ZM43.09 13.27L43.09 13.27L43.09 13.27Q42.13 13.62 42.13 14.38L42.13 14.38L42.13 14.38Q42.13 15.13 42.90 15.50L42.90 15.50L42.90 15.50Q43.67 15.88 44.56 15.88L44.56 15.88L44.56 15.88Q45.65 15.88 46.24 15.39L46.24 15.39L46.24 15.39Q46.59 15.11 46.59 14.67L46.59 14.67L46.59 14.67Q46.59 14.31 46.27 14.06L46.27 14.06L46.27 14.06Q45.99 13.83 44.66 13.59L44.66 13.59L44.66 13.59Q44.38 13.54 43.81 13.42L43.81 13.42L43.81 13.42Q43.25 13.30 43.09 13.27ZM43.37 9.69L43.37 9.69L43.37 9.69Q43.74 10.47 44.59 10.47L44.59 10.47L44.59 10.47Q45.18 10.47 45.40 10.28L45.40 10.28L45.40 10.28Q45.79 9.83 45.79 8.90L45.79 8.90L45.79 8.90Q45.79 7.97 45.50 7.55L45.50 7.55L45.50 7.55Q45.21 7.14 44.53 7.14L44.53 7.14L44.53 7.14Q43.86 7.14 43.54 7.32L43.54 7.32L43.54 7.32Q43.16 7.84 43.16 8.55L43.16 8.55L43.16 8.55Q43.16 9.25 43.37 9.69ZM52.70 11.80L52.70 10.49L52.70 10.49Q52.12 10.28 51.37 10.28L51.37 10.28L51.37 10.28Q50.62 10.28 50.29 10.51L50.29 10.51L50.29 10.51Q50.08 10.84 50.08 11.38L50.08 11.38L50.08 11.38Q50.08 11.91 50.37 12.22L50.37 12.22L50.37 12.22Q50.67 12.53 51.11 12.53L51.11 12.53L51.11 12.53Q51.55 12.53 52.01 12.30L52.01 12.30L52.01 12.30Q52.47 12.07 52.70 11.80L52.70 11.80ZM52.92 12.50L52.92 12.50L52.92 12.50Q52.07 13.44 50.99 13.44L50.99 13.44L50.99 13.44Q49.92 13.44 49.31 12.98L49.31 12.98L49.31 12.98Q48.71 12.52 48.71 11.49L48.71 11.49L48.71 11.49Q48.71 10.46 49.43 10.01L49.43 10.01L49.43 10.01Q50.15 9.56 51.46 9.56L51.46 9.56L52.70 9.60L52.70 8.81L52.70 8.81Q52.70 8.06 52.33 7.60L52.33 7.60L52.33 7.60Q51.97 7.14 51.23 7.14L51.23 7.14L51.23 7.14Q50.68 7.15 49.48 8.19L49.48 8.19L49.48 8.19Q49.07 7.67 48.90 6.85L48.90 6.85L48.90 6.85Q50.29 6.40 51.45 6.40L51.45 6.40L51.45 6.40Q52.61 6.40 53.31 7.00L53.31 7.00L53.31 7.00Q54.01 7.60 54.01 8.71L54.01 8.71L54.01 11.06L54.01 11.06Q54.03 11.69 54.22 12.23L54.22 12.23L54.22 12.23Q54.40 12.77 54.71 12.98L54.71 12.98L54.74 13.12L53.24 13.48L53.24 13.48Q53.06 13.03 52.92 12.50ZM60.30 6.40L60.30 6.40L60.30 6.40Q61.31 6.40 61.86 7.04L61.86 7.04L61.86 7.04Q62.41 7.69 62.41 8.89L62.41 8.89L62.41 10.91L62.41 10.91Q62.41 12.24 62.83 13.19L62.83 13.19L62.83 13.29L60.86 13.29L60.86 13.19L60.86 13.19Q61.10 12.49 61.10 11.33L61.10 11.33L61.10 9.18L61.10 9.18Q61.10 8.37 60.85 7.96L60.85 7.96L60.85 7.96Q60.61 7.55 59.86 7.55L59.86 7.55L59.86 7.55Q59.12 7.55 57.96 8.26L57.96 8.26L57.96 10.91L57.96 10.91Q57.96 12.26 58.37 13.19L58.37 13.19L58.37 13.29L56.41 13.29L56.41 13.19L56.41 13.19Q56.64 12.49 56.64 11.33L56.64 11.33L56.64 8.95L56.64 8.95Q56.64 8.34 56.40 7.76L56.40 7.76L56.40 7.76Q56.15 7.18 55.83 6.99L55.83 6.99L55.82 6.82L57.65 6.38L57.74 6.52L57.74 6.52Q57.85 7.04 57.90 7.57L57.90 7.57L57.90 7.57Q58.42 7.17 58.71 6.97L58.71 6.97L58.71 6.97Q59.00 6.78 59.44 6.59L59.44 6.59L59.44 6.59Q59.89 6.40 60.30 6.40ZM64.96 11.34L64.96 11.34L64.96 8.62L64.96 8.62Q64.96 7.38 64.26 6.89L64.26 6.89L64.26 6.72L66.23 6.38L66.32 6.52L66.32 6.52Q66.28 6.93 66.28 7.69L66.28 7.69L66.28 10.99L66.28 10.99Q66.28 12.39 66.63 13.19L66.63 13.19L66.63 13.29L64.74 13.29L64.74 13.19L64.74 13.19Q64.96 12.53 64.96 11.34ZM66.14 3.37L66.14 3.37L66.14 3.37Q66.33 3.54 66.33 4.19L66.33 4.19L66.33 4.19Q66.33 4.34 66.32 4.47L66.32 4.47L66.21 4.56L66.21 4.56Q65.65 4.72 64.88 4.79L64.88 4.79L64.75 4.73L64.75 4.73Q64.54 4.37 64.54 3.77L64.54 3.77L64.54 3.77Q64.54 3.70 64.54 3.63L64.54 3.63L64.65 3.53L64.65 3.53Q65.32 3.30 65.94 3.30L65.94 3.30L65.94 3.30Q66.01 3.30 66.14 3.37ZM72.59 6.57L72.94 7.25L69.22 12.46L69.22 12.46Q71.51 12.46 72.79 12.05L72.79 12.05L72.94 12.12L72.55 13.29L67.86 13.29L67.52 12.61L71.26 7.41L71.26 7.41Q69.79 7.41 69.19 7.48L69.19 7.48L69.19 7.48Q68.59 7.56 68.10 7.80L68.10 7.80L67.94 7.70L68.22 6.52L72.59 6.57ZM77.90 11.80L77.90 10.49L77.90 10.49Q77.32 10.28 76.57 10.28L76.57 10.28L76.57 10.28Q75.82 10.28 75.49 10.51L75.49 10.51L75.49 10.51Q75.28 10.84 75.28 11.38L75.28 11.38L75.28 11.38Q75.28 11.91 75.57 12.22L75.57 12.22L75.57 12.22Q75.87 12.53 76.31 12.53L76.31 12.53L76.31 12.53Q76.75 12.53 77.21 12.30L77.21 12.30L77.21 12.30Q77.67 12.07 77.90 11.80L77.90 11.80ZM78.12 12.50L78.12 12.50L78.12 12.50Q77.27 13.44 76.19 13.44L76.19 13.44L76.19 13.44Q75.12 13.44 74.52 12.98L74.52 12.98L74.52 12.98Q73.91 12.52 73.91 11.49L73.91 11.49L73.91 11.49Q73.91 10.46 74.63 10.01L74.63 10.01L74.63 10.01Q75.35 9.56 76.66 9.56L76.66 9.56L77.90 9.60L77.90 8.81L77.90 8.81Q77.90 8.06 77.53 7.60L77.53 7.60L77.53 7.60Q77.17 7.14 76.43 7.14L76.43 7.14L76.43 7.14Q75.88 7.15 74.68 8.19L74.68 8.19L74.68 8.19Q74.27 7.67 74.10 6.85L74.10 6.85L74.10 6.85Q75.49 6.40 76.65 6.40L76.65 6.40L76.65 6.40Q77.81 6.40 78.51 7.00L78.51 7.00L78.51 7.00Q79.21 7.60 79.21 8.71L79.21 8.71L79.21 11.06L79.21 11.06Q79.23 11.69 79.41 12.23L79.41 12.23L79.41 12.23Q79.60 12.77 79.91 12.98L79.91 12.98L79.94 13.12L78.44 13.48L78.44 13.48Q78.26 13.03 78.12 12.50ZM83.16 7.35L83.16 11.72L83.16 11.72Q83.16 12.46 83.61 12.46L83.61 12.46L83.61 12.46Q83.99 12.46 84.88 12.01L84.88 12.01L85.18 12.50L85.18 12.50Q84.73 12.81 84.06 13.13L84.06 13.13L84.06 13.13Q83.38 13.44 82.82 13.44L82.82 13.44L82.82 13.44Q82.26 13.44 82.05 13.09L82.05 13.09L82.05 13.09Q81.84 12.74 81.84 12.08L81.84 12.08L81.84 7.36L80.58 7.43L80.92 6.52L80.92 6.52Q81.17 6.55 81.82 6.58L81.82 6.58L81.82 6.58Q81.79 5.88 81.73 5.32L81.73 5.32L83.16 4.96L83.16 6.57L83.16 6.57Q83.92 6.54 85.22 6.40L85.22 6.40L84.83 7.49L84.83 7.49Q84.07 7.38 83.16 7.35L83.16 7.35ZM86.86 11.34L86.86 11.34L86.86 8.62L86.86 8.62Q86.86 7.38 86.16 6.89L86.16 6.89L86.16 6.72L88.13 6.38L88.21 6.52L88.21 6.52Q88.17 6.93 88.17 7.69L88.17 7.69L88.17 10.99L88.17 10.99Q88.17 12.39 88.52 13.19L88.52 13.19L88.52 13.29L86.63 13.29L86.63 13.19L86.63 13.19Q86.86 12.53 86.86 11.34ZM88.03 3.37L88.03 3.37L88.03 3.37Q88.23 3.54 88.23 4.19L88.23 4.19L88.23 4.19Q88.23 4.34 88.21 4.47L88.21 4.47L88.10 4.56L88.10 4.56Q87.54 4.72 86.77 4.79L86.77 4.79L86.65 4.73L86.65 4.73Q86.44 4.37 86.44 3.77L86.44 3.77L86.44 3.77Q86.44 3.70 86.44 3.63L86.44 3.63L86.55 3.53L86.55 3.53Q87.22 3.30 87.84 3.30L87.84 3.30L87.84 3.30Q87.91 3.30 88.03 3.37ZM93.00 13.45L93.00 13.45L93.00 13.45Q91.53 13.45 90.68 12.52L90.68 12.52L90.68 12.52Q89.82 11.59 89.82 10.09L89.82 10.09L89.82 10.09Q89.82 8.58 90.82 7.49L90.82 7.49L90.82 7.49Q91.81 6.40 93.32 6.40L93.32 6.40L93.32 6.40Q94.82 6.40 95.64 7.31L95.64 7.31L95.64 7.31Q96.46 8.22 96.46 9.74L96.46 9.74L96.46 9.74Q96.46 11.27 95.47 12.36L95.47 12.36L95.47 12.36Q94.47 13.45 93.00 13.45ZM94.98 10.09L94.98 10.09L94.98 10.09Q94.98 8.71 94.54 7.95L94.54 7.95L94.54 7.95Q94.11 7.20 93.00 7.20L93.00 7.20L93.00 7.20Q92.29 7.20 91.88 7.50L91.88 7.50L91.88 7.50Q91.63 7.83 91.47 8.48L91.47 8.48L91.47 8.48Q91.31 9.14 91.31 9.74L91.31 9.74L91.31 9.74Q91.31 12.67 93.38 12.67L93.38 12.67L93.38 12.67Q94.02 12.67 94.43 12.38L94.43 12.38L94.43 12.38Q94.70 12.05 94.84 11.38L94.84 11.38L94.84 11.38Q94.98 10.71 94.98 10.09ZM102.24 6.40L102.24 6.40L102.24 6.40Q103.25 6.40 103.80 7.04L103.80 7.04L103.80 7.04Q104.36 7.69 104.36 8.89L104.36 8.89L104.36 10.91L104.36 10.91Q104.36 12.24 104.78 13.19L104.78 13.19L104.78 13.29L102.80 13.29L102.80 13.19L102.80 13.19Q103.04 12.49 103.04 11.33L103.04 11.33L103.04 9.18L103.04 9.18Q103.04 8.37 102.79 7.96L102.79 7.96L102.79 7.96Q102.55 7.55 101.81 7.55L101.81 7.55L101.81 7.55Q101.07 7.55 99.90 8.26L99.90 8.26L99.90 10.91L99.90 10.91Q99.90 12.26 100.31 13.19L100.31 13.19L100.31 13.29L98.35 13.29L98.35 13.19L98.35 13.19Q98.59 12.49 98.59 11.33L98.59 11.33L98.59 8.95L98.59 8.95Q98.59 8.34 98.34 7.76L98.34 7.76L98.34 7.76Q98.10 7.18 97.78 6.99L97.78 6.99L97.76 6.82L99.60 6.38L99.68 6.52L99.68 6.52Q99.79 7.04 99.85 7.57L99.85 7.57L99.85 7.57Q100.37 7.17 100.65 6.97L100.65 6.97L100.65 6.97Q100.94 6.78 101.39 6.59L101.39 6.59L101.39 6.59Q101.84 6.40 102.24 6.40Z"></path></g><!----><!----></svg>